<?xml version="1.0" encoding="UTF-8"?>
<svg version="1.1" xmlns="http://www.w3.org/2000/svg" width="2082" height="1078" viewBox="684 0 2082 1078">

<path d="M0 0 C1.37509102 0.00211222 2.75018268 0.00383737 4.12527466 0.00518799 C28.01988411 0.04422691 52.65288458 0.14765292 75.875 6.4375 C77.21159666 6.73290063 78.55026442 7.0190519 79.890625 7.296875 C128.99667369 17.56060681 175.47245026 42.0857709 218.57568359 67.12792969 C222.04129389 69.10175997 225.58027149 70.92349807 229.125 72.75 C264.0007285 90.89233869 297.43697281 112.90372645 330.5390625 134.03515625 C335.47435856 137.18525069 340.42221777 140.31499191 345.375 143.4375 C352.15533616 147.71430551 358.92459617 152.00818419 365.6875 156.3125 C366.60297607 156.89410889 367.51845215 157.47571777 368.46166992 158.07495117 C373.1745731 161.07122032 377.87685807 164.08234554 382.5625 167.12109375 C410.12531708 184.94758988 432.26388295 192.475979 464.91012573 195.44033813 C481.47148479 196.94764478 497.97589335 198.58893616 514.443573 200.9161377 C533.56036257 203.61034289 550.46782599 204.39774398 569.52392578 200.87915039 C595.43440959 196.34863763 623.89919067 199.40403152 648.875 207.4375 C649.71321289 207.6948291 650.55142578 207.9521582 651.41503906 208.21728516 C675.0717307 215.49342286 697.17377998 225.59889791 718.875 237.4375 C713.37512443 228.35368912 707.95373248 219.40277894 700.875 211.4375 C700.17503906 210.6434375 699.47507812 209.849375 698.75390625 209.03125 C686.99357344 196.49747203 672.54696835 188.08693893 656.90429688 181.32006836 C655.15772601 180.56046133 653.43193964 179.7533825 651.7109375 178.9375 C645.9094271 176.47612755 639.71269584 175.07120575 633.625 173.5 C632.61054306 173.23629105 632.61054306 173.23629105 631.57559204 172.96725464 C617.82874659 169.42280068 603.98558685 167.0364865 589.875 165.4375 C589.18236557 165.35153564 588.48973114 165.26557129 587.77610779 165.17700195 C580.51631711 164.34578502 573.31298144 164.29278689 566.01171875 164.3046875 C564.04825249 164.30325241 564.04825249 164.30325241 562.04512024 164.30178833 C559.28763636 164.30032358 556.53018512 164.30242519 553.77270508 164.30712891 C550.27671787 164.31280849 546.78080777 164.30955057 543.28482342 164.30355644 C539.90211608 164.29902557 536.51942826 164.3022205 533.13671875 164.3046875 C531.90088547 164.30266327 530.66505219 164.30063904 529.39176941 164.29855347 C522.48524623 164.31687867 515.66980242 164.59745705 508.78994751 165.21388245 C504.04756288 165.57769018 499.31576281 165.54461546 494.5625 165.5 C493.61955078 165.49548828 492.67660156 165.49097656 491.70507812 165.48632812 C489.4283121 165.47477094 487.15169511 165.45848783 484.875 165.4375 C485.74668051 156.85559779 489.27272964 152.59137587 495.66796875 146.9921875 C503.22615187 140.87509154 511.44705755 135.80408909 519.73730469 130.75585938 C521.88652037 129.43039516 524.01185326 128.07329366 526.1328125 126.703125 C546.41952514 113.6191136 567.50379301 101.92034933 588.99145508 90.93798828 C591.74231093 89.5065464 594.46812438 88.0332901 597.19271851 86.55264282 C605.31909302 82.15307978 613.58698283 78.23942103 622.0625 74.5625 C622.74421265 74.26512939 623.42592529 73.96775879 624.1282959 73.66137695 C692.58233427 43.88979368 776.18436468 23.88237211 850.875 37.4375 C852.67038024 37.73164723 854.46595671 38.02459896 856.26171875 38.31640625 C868.44491507 40.38208457 880.1615924 43.5273885 891.875 47.4375 C892.83921875 47.75847656 893.8034375 48.07945312 894.796875 48.41015625 C910.64973109 53.75541414 925.81816655 60.16260243 940.875 67.4375 C941.88481934 67.9212207 942.89463867 68.40494141 943.93505859 68.90332031 C975.48313325 84.07403388 1004.88945835 103.45203578 1032.875 124.4375 C1033.47538086 124.88770508 1034.07576172 125.33791016 1034.69433594 125.80175781 C1042.24306434 131.48938458 1049.61353922 137.38796591 1056.875 143.4375 C1057.38530762 143.86144043 1057.89561523 144.28538086 1058.42138672 144.72216797 C1065.42571686 150.5509462 1072.25320612 156.52821383 1078.92578125 162.734375 C1081.14005397 164.78727438 1083.40817529 166.76699884 1085.6953125 168.73828125 C1090.12836755 172.60310354 1094.29142464 176.70641201 1098.4375 180.875 C1099.15357422 181.58720703 1099.86964844 182.29941406 1100.60742188 183.03320312 C1106.95820232 189.39554095 1113.09637812 195.791705 1117.875 203.4375 C1092.84469544 202.52730711 1067.87538964 196.73080309 1043.29125977 192.24365234 C1042.23137093 192.05158455 1042.23137093 192.05158455 1041.15007019 191.8556366 C1039.52511526 191.5569851 1037.90165085 191.25017685 1036.2792511 190.9379425 C1029.77860041 189.70610323 1023.30431453 188.84421867 1016.72265625 188.18359375 C1015.7012706 188.07781509 1014.67988495 187.97203644 1013.62754822 187.86305237 C1011.48408036 187.6418253 1009.34040445 187.42260542 1007.1965332 187.20532227 C1003.94893034 186.87615853 1000.70196922 186.54118352 997.45507812 186.20507812 C995.35680562 185.98924488 993.25849938 185.77373926 991.16015625 185.55859375 C989.72990868 185.4116935 989.72990868 185.4116935 988.27076721 185.26182556 C978.15246952 184.23780096 968.09019017 183.28839263 957.9140625 183.234375 C956.56284302 183.22392151 956.56284302 183.22392151 955.18432617 183.21325684 C952.28950244 183.19597394 949.3948732 183.1895354 946.5 183.1875 C945.50522644 183.18649292 944.51045288 183.18548584 943.48553467 183.18444824 C926.42788777 183.19608211 909.78572589 184.06605035 892.875 186.4375 C891.93382324 186.5607666 890.99264648 186.6840332 890.02294922 186.81103516 C838.58177691 193.72352944 789.03560862 213.49958054 742.875 236.4375 C744.07253906 236.58445312 745.27007813 236.73140625 746.50390625 236.8828125 C764.67752566 239.30646199 782.1764774 244.60712316 794.28125 259.31640625 C797.86483034 264.08573008 799.50985799 267.92746406 799.2890625 273.87890625 C797.21701204 286.68261431 788.23829897 298.35661529 777.9140625 305.86328125 C776.0625 307 776.0625 307 772.875 308.4375 C769.39700199 307.27816733 769.28398646 306.81678835 767.625 303.75 C761.51314084 293.63568439 750.98329644 288.62428113 739.796875 285.78515625 C733.06284764 284.31014286 726.62588495 283.97431551 719.75 284.0625 C718.56768799 284.07410156 717.38537598 284.08570313 716.16723633 284.09765625 C678.18651329 284.79961702 641.01471935 299.88639058 606.69837952 314.90235901 C581.33019344 325.98709716 555.73648952 336.55807561 529.875 346.4375 C528.89950195 346.81229492 527.92400391 347.18708984 526.91894531 347.57324219 C486.43055125 362.98111912 443.24962927 365.8756851 400.3125 365.75 C399.00993256 365.74817719 397.70736511 365.74635437 396.36532593 365.74447632 C355.97164411 365.64966489 319.39321555 359.93049206 280.31884766 350.02709961 C263.90822603 345.87885561 247.43765693 342.17326565 230.87054443 338.71105957 C226.69667105 337.83511732 222.5384158 336.91057835 218.38671875 335.93359375 C170.9508073 324.79725321 122.51187707 318.13308675 74.03973389 313.6456604 C72.52467971 313.49997308 71.01043244 313.34575772 69.49688721 313.18515015 C63.41555202 312.54291736 57.35152631 312.13981505 51.2421875 311.8828125 C50.2510495 311.84076691 49.2599115 311.79872131 48.23873901 311.75540161 C37.15956141 311.32118685 26.08621609 311.28205431 15 311.3125 C13.95062256 311.31438324 12.90124512 311.31626648 11.82006836 311.31820679 C-20.74360655 311.38656848 -52.76018322 313.81281053 -85.09301758 317.52294922 C-90.80532033 318.16217799 -96.37559732 318.6907475 -102.125 318.4375 C-103.125 317.4375 -103.125 317.4375 -103.5 314.25 C-103.04910596 309.66591055 -101.35619956 307.50754628 -98.125 304.4375 C-95.79704782 302.75478796 -93.35054531 301.40172259 -90.8125 300.0625 C-90.10955811 299.6802124 -89.40661621 299.2979248 -88.68237305 298.90405273 C-81.97049002 295.28363116 -75.17246329 291.83516638 -68.31347656 288.50292969 C-66.81055267 287.77125188 -65.31001758 287.03465305 -63.81152344 286.29394531 C-19.59528763 264.44529136 27.64917502 249.42081932 75.875 239.4375 C49.60272308 217.87798203 19.24846279 200.69594453 -10.64160156 184.76953125 C-12.96765073 183.52189812 -15.27817683 182.24980947 -17.5859375 180.96875 C-46.20163655 165.25224024 -77.44608357 153.07753261 -108.75 144 C-109.80219727 143.69400879 -110.85439453 143.38801758 -111.93847656 143.07275391 C-177.76774308 124.73039113 -248.35236523 129.38545112 -315.25512695 138.65089417 C-320.53702246 139.37642111 -325.81543352 139.95963902 -331.125 140.4375 C-323.21373488 129.01011705 -312.97341866 119.99825478 -302.125 111.4375 C-301.01654461 110.52939608 -299.90985813 109.6191299 -298.8046875 108.70703125 C-259.83881837 76.72748047 -214.03300364 50.77459334 -167.125 32.4375 C-166.04621582 32.0142041 -164.96743164 31.5909082 -163.85595703 31.15478516 C-140.16817824 21.94229068 -116.05056133 13.82670059 -91.06201172 9.00683594 C-87.95449377 8.40444759 -84.85471878 7.76875689 -81.75390625 7.1328125 C-54.57244463 1.69253249 -27.67261352 -0.12412758 0 0 Z " fill="#132658" transform="translate(1015.125,712.5625)"/>
<path d="M0 0 C13.14948684 11.81627498 26.35541822 24.24614736 37 38.40234375 C38.07701172 39.78873047 38.07701172 39.78873047 39.17578125 41.203125 C72.97007349 85.26994822 100.61755151 145.83462588 100 202.40234375 C97.21998608 203.93781428 94.96026302 204.70575601 91.80859375 205.04296875 C90.54305664 205.18943848 90.54305664 205.18943848 89.25195312 205.33886719 C88.32318359 205.44231445 87.39441406 205.54576172 86.4375 205.65234375 C59.66210664 208.92334935 33.19157341 213.97735584 7 220.40234375 C5.74880371 220.70897949 4.49760742 221.01561523 3.20849609 221.33154297 C-26.33424606 228.67251291 -54.34352266 238.81848651 -82 251.40234375 C-82.99 251.85109863 -83.98 252.29985352 -85 252.76220703 C-97.61124978 258.51653255 -109.79236505 264.94755867 -121.90234375 271.68505859 C-125.28182513 273.55858255 -128.67127841 275.41348255 -132.0625 277.265625 C-152.39298518 288.37973378 -172.36602532 299.84737618 -191.6875 312.65234375 C-192.32170868 313.07068481 -192.95591736 313.48902588 -193.60934448 313.92004395 C-211.10907689 325.49262663 -227.98921168 337.82708974 -233.4375 359.27734375 C-233.623125 360.30859375 -233.80875 361.33984375 -234 362.40234375 C-250.51125923 363.31963593 -264.51505803 353.2778534 -277.62109375 344.3515625 C-300.30200188 328.95807992 -323.85808684 314.77331363 -347.22290039 300.45092773 C-354.6642845 295.87557563 -362.03340914 291.1983298 -369.375 286.46484375 C-387.87148298 274.55934863 -406.60367225 263.00799611 -425.94628906 252.52197266 C-428.74989856 250.99351888 -431.53439806 249.4317423 -434.3203125 247.87133789 C-452.10587477 237.92473032 -470.00000996 228.18359396 -488.34814453 219.30908203 C-490.92366944 218.04911621 -493.46558693 216.74263184 -496 215.40234375 C-497.04542969 214.85835937 -498.09085938 214.314375 -499.16796875 213.75390625 C-502.29469589 209.74049529 -501.40771819 205.28692021 -501 200.40234375 C-500.9273291 199.52932617 -500.8546582 198.65630859 -500.77978516 197.75683594 C-500.51062683 195.08747214 -500.17576935 192.43550418 -499.8125 189.77734375 C-499.6786792 188.7915332 -499.5448584 187.80572266 -499.40698242 186.79003906 C-496.43477981 165.77433122 -491.462091 145.60919973 -485 125.40234375 C-484.7304248 124.5510791 -484.46084961 123.69981445 -484.18310547 122.82275391 C-480.9864169 112.84950209 -476.87623635 103.63973557 -472.01464844 94.37304688 C-471.01685305 92.43507661 -470.06781178 90.48065903 -469.1328125 88.51171875 C-461.54428324 72.61629005 -451.98992488 58.13540944 -441 44.40234375 C-440.16221673 43.30186851 -439.3276441 42.19894255 -438.49609375 41.09375 C-426.69322473 25.52045825 -412.85940493 11.08473195 -398 -1.59765625 C-397.08863281 -2.39816406 -396.17726563 -3.19867188 -395.23828125 -4.0234375 C-382.41176994 -15.20409642 -368.62938898 -25.11105177 -353.84765625 -33.54150391 C-351.97342633 -34.61284622 -350.11158038 -35.70372648 -348.25 -36.796875 C-324.04540192 -50.8743998 -298.27924771 -61.24756585 -271 -67.59765625 C-270.1219873 -67.80874023 -269.24397461 -68.01982422 -268.33935547 -68.23730469 C-261.58905241 -69.85168797 -254.81767355 -71.2969159 -248 -72.59765625 C-246.68708984 -72.84974854 -246.68708984 -72.84974854 -245.34765625 -73.10693359 C-158.16975634 -88.92021807 -65.78014746 -56.9580704 0 0 Z " fill="#FD780E" transform="translate(1697,505.59765625)"/>

<path d="M0 0 C-0.76328613 0.41660889 -1.52657227 0.83321777 -2.31298828 1.26245117 C-24.22928281 13.24232945 -45.85543162 25.44391302 -66.6875 39.25 C-67.63881302 39.8775116 -67.63881302 39.8775116 -68.60934448 40.5177002 C-86.10907689 52.09028288 -102.98921168 64.42474599 -108.4375 85.875 C-108.623125 86.90625 -108.80875 87.9375 -109 89 C-117.0746543 89.44859191 -124.60160544 88.23905243 -131 83 C-129.58249437 83.11509661 -128.16598831 83.24253658 -126.75 83.375 C-125.96109375 83.44460938 -125.1721875 83.51421875 -124.359375 83.5859375 C-121.89572304 84.01830026 -120.20811108 84.86032977 -118 86 C-115.67504723 86.38749213 -113.34148732 86.72982839 -111 87 C-110.96261719 86.41992188 -110.92523437 85.83984375 -110.88671875 85.2421875 C-110.34210767 78.77092642 -108.62436538 74.43654807 -105 69 C-104.34 69 -103.68 69 -103 69 C-102.71125 68.2575 -102.4225 67.515 -102.125 66.75 C-99.5 60.33333333 -99.5 60.33333333 -96 58 C-95.67 57.01 -95.34 56.02 -95 55 C-93.34151823 53.98648336 -91.67334039 52.98879205 -90 52 C-88.87779422 50.84478816 -87.75627368 49.68888937 -86.640625 48.52734375 C-80.78613406 43.07709147 -74.36724352 39.02583216 -67 36 C-60.98466393 32.53662469 -55.44916509 28.60256902 -50 24.3125 C-45.34227249 20.7450078 -41.08334233 18.52715201 -35.47265625 16.8515625 C-32.71800854 15.90288446 -30.48471905 14.50512592 -28 13 C-27.34 13 -26.68 13 -26 13 C-26 12.34 -26 11.68 -26 11 C-24.73308493 10.32591692 -23.46129251 9.66099503 -22.1875 9 C-21.47980469 8.62875 -20.77210937 8.2575 -20.04296875 7.875 C-18 7 -18 7 -15 7 C-15 6.34 -15 5.68 -15 5 C-9.25 2 -9.25 2 -7 2 C-7 1.34 -7 0.68 -7 0 C-3.86650268 -1.04449911 -3.01031744 -0.93423645 0 0 Z " fill="#E48635" transform="translate(1572,779)"/>
<path d="M0 0 C0.89238876 -0.00701431 1.78477753 -0.01402863 2.70420837 -0.02125549 C5.58801333 -0.03873935 8.47161265 -0.04511313 11.35546875 -0.046875 C12.34172241 -0.04754974 13.32797607 -0.04822449 14.34411621 -0.04891968 C46.20119795 -0.01431913 76.0642685 4.96426899 106.54296875 14.203125 C106.54296875 14.533125 106.54296875 14.863125 106.54296875 15.203125 C100.32357763 14.50643708 94.23887281 13.43966227 88.10546875 12.203125 C87.19603516 12.02523438 86.28660156 11.84734375 85.34960938 11.6640625 C84.48658203 11.49132812 83.62355469 11.31859375 82.734375 11.140625 C81.95263916 10.98464844 81.17090332 10.82867187 80.36547852 10.66796875 C78.54296875 10.203125 78.54296875 10.203125 77.54296875 9.203125 C74.81280015 8.82451007 72.0951306 8.49462684 69.35546875 8.203125 C64.38923427 7.66120001 59.46414435 7.08218667 54.54296875 6.203125 C54.54296875 5.543125 54.54296875 4.883125 54.54296875 4.203125 C53.12757812 4.22052734 53.12757812 4.22052734 51.68359375 4.23828125 C49.75773437 4.25181641 49.75773437 4.25181641 47.79296875 4.265625 C46.54 4.27722656 45.28703125 4.28882813 43.99609375 4.30078125 C40.57767643 4.27461989 37.21279046 4.02325148 33.80859375 3.71484375 C15.88226359 2.13947403 -2.0672151 3.11787695 -19.95703125 4.640625 C-20.75246338 4.7080188 -21.54789551 4.7754126 -22.36743164 4.84484863 C-31.49924155 5.47993193 -31.49924155 5.47993193 -40.45703125 7.203125 C-41.87237903 7.26769379 -43.29040814 7.28923539 -44.70703125 7.265625 C-46.56328125 7.2346875 -46.56328125 7.2346875 -48.45703125 7.203125 C-45.1609605 5.30486176 -42.19268495 4.70178701 -38.44140625 4.16796875 C-37.27222656 3.99845703 -36.10304688 3.82894531 -34.8984375 3.65429688 C-33.68027344 3.48478516 -32.46210937 3.31527344 -31.20703125 3.140625 C-30.00433594 2.96724609 -28.80164062 2.79386719 -27.5625 2.61523438 C-24.19539376 2.13289918 -20.8278858 1.65853211 -17.45703125 1.203125 C-16.19705322 1.02370361 -14.9370752 0.84428223 -13.63891602 0.65942383 C-9.09186001 0.09955726 -4.57724329 0.02408364 0 0 Z " fill="#E57C27" transform="translate(1482.45703125,429.796875)"/>
<path d="M0 0 C7.35730861 11.03596292 8.46843152 28.64347338 10.375 41.5 C10.54241699 42.62599609 10.70983398 43.75199219 10.88232422 44.91210938 C11.68694413 50.66657083 12.18330505 56.1906401 12 62 C9.10124248 63.61620184 6.71189099 64.33710255 3.421875 64.7109375 C2.51937012 64.81946045 1.61686523 64.9279834 0.68701172 65.03979492 C-0.28220215 65.1504126 -1.25141602 65.26103027 -2.25 65.375 C-11.95221191 66.54982248 -21.56892748 68.02802904 -31.19238281 69.72998047 C-32.14209961 69.8951416 -33.09181641 70.06030273 -34.0703125 70.23046875 C-34.90320801 70.37895264 -35.73610352 70.52743652 -36.59423828 70.68041992 C-39.09076406 71.01205705 -41.48456465 71.05519501 -44 71 C-40.34701407 68.8269417 -36.50274885 68.20844026 -32.375 67.5 C-30.93872018 67.24264416 -29.50252204 66.9848321 -28.06640625 66.7265625 C-27.02250732 66.5414209 -27.02250732 66.5414209 -25.95751953 66.35253906 C-21.20378749 65.49641671 -16.45145142 64.56931454 -11.74609375 63.4765625 C-7.37376727 62.71778038 -2.95699549 62.60491 1.46875 62.39453125 C5.03404255 62.51916283 5.03404255 62.51916283 8 61 C8.45589692 52.87867349 8.17390633 45.13040403 6.4375 37.171875 C6 35 6 35 6 32 C5.34 32 4.68 32 4 32 C3.94392578 31.12601563 3.94392578 31.12601563 3.88671875 30.234375 C3.49235592 25.31643859 2.74524953 20.76218224 1.4375 16 C-0.0146312 10.55803258 -0.33484205 5.605504 0 0 Z " fill="#E38533" transform="translate(1785,646)"/>
<path d="M0 0 C0.33 0 0.66 0 1 0 C1.34934634 6.40468289 0.29946406 11.05372966 -2 17 C-2.433125 18.14210938 -2.86625 19.28421875 -3.3125 20.4609375 C-4.52846899 23.64594719 -5.75842362 26.82490151 -7 30 C-7.66 30 -8.32 30 -9 30 C-9.10957031 30.9178125 -9.21914062 31.835625 -9.33203125 32.78125 C-10.22119936 39.66326662 -11.35338103 45.60400416 -14 52 C-15.42193282 56.73977608 -16.11833628 60.99984954 -16.4375 65.9375 C-16.69492364 69.69120476 -17.13228534 72.81062189 -18.5 76.3125 C-20.45542376 81.51751686 -20.48313494 86.73644213 -20.75 92.24609375 C-21.08381662 97.25855897 -21.9494257 102.09392003 -23 107 C-23.33 107 -23.66 107 -24 107 C-24.15026114 99.68377611 -23.80311028 92.62361875 -22.8125 85.375 C-22.6786792 84.38918945 -22.5448584 83.40337891 -22.40698242 82.38769531 C-18.5716388 55.26893136 -13.08815953 24.40268997 0 0 Z " fill="#E38636" transform="translate(1220,610)"/>
<path d="M0 0 C4.72463088 0.46319911 8.17057052 1.09891706 12 4 C12 4.66 12 5.32 12 6 C12.61488281 6.19335938 13.22976563 6.38671875 13.86328125 6.5859375 C15.07564453 6.97652344 15.07564453 6.97652344 16.3125 7.375 C17.11300781 7.63023437 17.91351562 7.88546875 18.73828125 8.1484375 C21 9 21 9 24 11 C24 11.66 24 12.32 24 13 C24.9075 13.2475 25.815 13.495 26.75 13.75 C30.12496123 15.04806201 31.74102121 16.21971841 34 19 C34 19.66 34 20.32 34 21 C34.94875 21.309375 35.8975 21.61875 36.875 21.9375 C40 23 40 23 42 24 C42 24.66 42 25.32 42 26 C44.64 26.66 47.28 27.32 50 28 C50 28.99 50 29.98 50 31 C50.61488281 31.20496094 51.22976563 31.40992188 51.86328125 31.62109375 C55.2421875 32.74739583 58.62109375 33.87369792 62 35 C62.6875 37.0625 62.6875 37.0625 63 39 C64.98 39.33 66.96 39.66 69 40 C69 40.66 69 41.32 69 42 C69.66 42 70.32 42 71 42 C71 42.66 71 43.32 71 44 C71.886875 44.268125 72.77375 44.53625 73.6875 44.8125 C76.7909666 45.9250635 79.31110685 47.10195778 82 49 C82 49.66 82 50.32 82 51 C82.804375 51.28875 83.60875 51.5775 84.4375 51.875 C87 53 87 53 88 55 C84.45334709 53.68058998 81.36911336 52.11113159 78.17578125 50.0859375 C76.77694702 49.2043396 76.77694702 49.2043396 75.34985352 48.30493164 C74.34752686 47.6680542 73.3452002 47.03117676 72.3125 46.375 C70.1411926 45.00561002 67.96929755 43.63715145 65.796875 42.26953125 C65.23746719 41.9169072 64.67805939 41.56428314 64.10169983 41.20097351 C58.12081192 37.43565742 52.09093028 33.7510765 46.0625 30.0625 C34.13305225 22.74933549 22.34241658 15.23667075 10.58496094 7.65087891 C8.16902877 6.10794981 5.73330056 4.60297979 3.2890625 3.10546875 C2.20367188 2.41066406 1.11828125 1.71585938 0 1 C0 0.67 0 0.34 0 0 Z " fill="#DF8638" transform="translate(1307,778)"/>
<path d="M0 0 C3.45861803 0.94986279 6.85179216 1.32763075 10.41796875 1.6640625 C10.91296875 3.1490625 10.91296875 3.1490625 11.41796875 4.6640625 C4.28388951 3.9183899 -2.77594699 2.90391501 -9.85742188 1.76953125 C-22.86311442 -0.24701309 -35.71187305 -0.49447628 -48.84667969 -0.46630859 C-51.83924364 -0.46092452 -54.8316592 -0.46629327 -57.82421875 -0.47265625 C-59.74869824 -0.4719958 -61.67317765 -0.47071532 -63.59765625 -0.46875 C-64.4811676 -0.47077423 -65.36467896 -0.47279846 -66.27496338 -0.47488403 C-71.46989954 -0.45542618 -76.43771445 -0.05774193 -81.58203125 0.6640625 C-83.24777815 0.72321544 -84.91543781 0.75260302 -86.58203125 0.7265625 C-87.34515625 0.71753906 -88.10828125 0.70851563 -88.89453125 0.69921875 C-89.72984375 0.68181641 -89.72984375 0.68181641 -90.58203125 0.6640625 C-90.58203125 0.3340625 -90.58203125 0.0040625 -90.58203125 -0.3359375 C-88.39553473 -0.65538309 -86.20774366 -0.9659656 -84.01953125 -1.2734375 C-82.80136719 -1.44746094 -81.58320312 -1.62148438 -80.328125 -1.80078125 C-68.61205337 -3.24537275 -56.74054776 -3.58166671 -44.94848633 -3.94848633 C-43.41412062 -3.99840158 -41.87992131 -4.05372953 -40.34594727 -4.11450195 C-26.51831471 -4.66065884 -13.36224364 -4.00260853 0 0 Z " fill="#FEEDCD" transform="translate(1546.58203125,431.3359375)"/>
<path d="M0 0 C0.66 0 1.32 0 2 0 C1.01257386 5.59427276 -0.01808976 11.17420737 -1.18359375 16.734375 C-3.38271096 27.24117188 -5.39792131 37.73088956 -6.8125 48.375 C-6.99800415 49.7357666 -6.99800415 49.7357666 -7.18725586 51.12402344 C-7.76479981 55.72909838 -8.14971846 60.33039525 -8.32421875 64.96875 C-8.37775513 66.30196289 -8.37775513 66.30196289 -8.43237305 67.66210938 C-8.2063364 70.15279752 -8.2063364 70.15279752 -6.12036133 71.81005859 C-4.13006217 73.04434199 -2.12447628 74.02312028 0 75 C0 75.33 0 75.66 0 76 C-3.63975198 75.72001908 -6.29303801 75.46510657 -9.375 73.4375 C-13.8638103 66.70428456 -11.61224128 57.59237975 -10.625 50.0625 C-10.48578125 48.91458984 -10.3465625 47.76667969 -10.203125 46.58398438 C-9.14371932 38.14371932 -9.14371932 38.14371932 -8 37 C-7.6449968 34.18682339 -7.33804553 31.38361482 -7.0625 28.5625 C-6.37789793 21.94031672 -5.46826083 15.50229797 -4 9 C-3.34 9 -2.68 9 -2 9 C-2.04125 8.071875 -2.0825 7.14375 -2.125 6.1875 C-2 3 -2 3 0 0 Z " fill="#FEF7E3" transform="translate(1205,647)"/>
<path d="M0 0 C0.99 0.33 1.98 0.66 3 1 C4.46032786 7.88440276 5.21182084 14.60003543 5.25 21.625 C5.25902344 22.32367187 5.26804687 23.02234375 5.27734375 23.7421875 C5.24775681 28.75224319 5.24775681 28.75224319 3 31 C0.8359375 31.1953125 0.8359375 31.1953125 -1.625 31.125 C-2.44226562 31.10695313 -3.25953125 31.08890625 -4.1015625 31.0703125 C-4.72804688 31.04710937 -5.35453125 31.02390625 -6 31 C-6 31.66 -6 32.32 -6 33 C-32.20026873 37.00792354 -32.20026873 37.00792354 -43.1875 38.25 C-43.87312012 38.32976074 -44.55874023 38.40952148 -45.26513672 38.49169922 C-49.87167246 38.98725946 -54.3750028 39.06173522 -59 39 C-59 38.67 -59 38.34 -59 38 C-44.093291 35.19192255 -29.15657107 32.72534448 -14.15576172 30.47558594 C-8.76846763 29.66369913 -3.3843147 28.83138145 2 28 C1.4426724 18.65586912 0.83004886 9.32480419 0 0 Z " fill="#FDEBCD" transform="translate(1794,680)"/>
<path d="M0 0 C31.5159052 4.24862303 67.15446029 33.21197785 90 54 C88.68 54.33 87.36 54.66 86 55 C85.67 54.01 85.34 53.02 85 52 C82.5386856 49.74965541 80.25691728 48.12227225 77.2421875 46.6875 C73.59213406 44.78771315 70.53346731 42.53795802 67.3125 40 C66.74466797 39.56171875 66.17683594 39.1234375 65.59179688 38.671875 C63.3814878 36.95130615 61.23907483 35.24122865 59.265625 33.25 C57.95000793 31.78562667 57.95000793 31.78562667 55.4375 31 C53 30 53 30 51 27 C48.59078059 25.37214904 46.30944096 24.11754931 43.59057617 23.0847168 C41.05305489 22.02221495 39.094883 20.80171265 36.86328125 19.20703125 C31.87658687 15.80715323 26.6513307 13.22746388 21.1875 10.6875 C20.26001953 10.24599609 19.33253906 9.80449219 18.37695312 9.34960938 C12.84749434 6.73083551 12.84749434 6.73083551 7 5 C7 4.34 7 3.68 7 3 C4.69 2.67 2.38 2.34 0 2 C0 1.34 0 0.68 0 0 Z " fill="#DE8336" transform="translate(1606,451)"/>
<path d="M0 0 C-1.19822388 0.51216064 -1.19822388 0.51216064 -2.4206543 1.03466797 C-23.62060088 10.11319039 -44.6984505 19.2012719 -64.78369141 30.59814453 C-65.57050293 31.04270996 -66.35731445 31.48727539 -67.16796875 31.9453125 C-68.20860474 32.54110107 -68.20860474 32.54110107 -69.27026367 33.14892578 C-71 34 -71 34 -73 34 C-73 33.34 -73 32.68 -73 32 C-72.01 32 -71.02 32 -70 32 C-70 31.34 -70 30.68 -70 30 C-67.35261084 28.5393715 -66.10551666 28 -63 28 C-63 27.34 -63 26.68 -63 26 C-61.70990357 25.49596232 -60.41786211 24.99690074 -59.125 24.5 C-58.04605469 24.08234375 -58.04605469 24.08234375 -56.9453125 23.65625 C-55 23 -55 23 -53 23 C-52.89002686 22.0886731 -52.89002686 22.0886731 -52.77783203 21.15893555 C-51.7061723 18.18445751 -50.37881889 17.789598 -47.5546875 16.45703125 C-46.64203125 16.02326172 -45.729375 15.58949219 -44.7890625 15.14257812 C-43.82742188 14.70365234 -42.86578125 14.26472656 -41.875 13.8125 C-40.9365625 13.36197266 -39.998125 12.91144531 -39.03125 12.44726562 C-33.91623853 10.05811111 -29.59923708 8.56710222 -24 8 C-22.03659169 7.26225078 -22.03659169 7.26225078 -20.375 6.25 C-16.73309989 4.31099228 -13.02113182 2.71499592 -9.1875 1.1875 C-8.08792969 0.74792969 -6.98835938 0.30835938 -5.85546875 -0.14453125 C-3 -1 -3 -1 0 0 Z " fill="#E08636" transform="translate(1645,744)"/>
<path d="M0 0 C0.66 0.33 1.32 0.66 2 1 C-2.71475671 6.47144606 -7.57336925 11.7211918 -12.875 16.625 C-13.77992187 17.46289062 -14.68484375 18.30078125 -15.6171875 19.1640625 C-18 21 -18 21 -21 21 C-21.165 21.680625 -21.33 22.36125 -21.5 23.0625 C-23.95779726 27.87568631 -28.07516311 31.74885026 -33.08203125 33.890625 C-35 34.4375 -35 34.4375 -38 35 C-31.56229871 27.30616187 -24.63003099 20.50428871 -17 14 C-16.4853418 13.56042969 -15.97068359 13.12085938 -15.44042969 12.66796875 C-13.7121451 11.1931129 -11.98159809 9.72096381 -10.25 8.25 C-9.69489746 7.77788086 -9.13979492 7.30576172 -8.56787109 6.81933594 C-5.77366232 4.45520042 -2.95927371 2.15481096 0 0 Z " fill="#F17D20" transform="translate(1316,490)"/>
<path d="M0 0 C-0.66 0 -1.32 0 -2 0 C-2 0.66 -2 1.32 -2 2 C-11.48634519 5.36395219 -19.88205637 7.380215 -30 7 C-30 7.66 -30 8.32 -30 9 C-30.90363281 9.12117187 -31.80726562 9.24234375 -32.73828125 9.3671875 C-33.91777344 9.53476562 -35.09726563 9.70234375 -36.3125 9.875 C-37.48425781 10.03742187 -38.65601563 10.19984375 -39.86328125 10.3671875 C-43.14530895 10.82300621 -43.14530895 10.82300621 -46 13 C-48.69921875 13.1953125 -48.69921875 13.1953125 -51.6875 13.125 C-53.17830078 13.09792969 -53.17830078 13.09792969 -54.69921875 13.0703125 C-55.45847656 13.04710937 -56.21773437 13.02390625 -57 13 C-54.28324065 11.1888271 -52.78210267 10.54054849 -49.71557617 9.77905273 C-48.85425583 9.56220322 -47.99293549 9.3453537 -47.10551453 9.12193298 C-46.17737442 8.89478104 -45.24923431 8.66762909 -44.29296875 8.43359375 C-43.33481766 8.19463882 -42.37666656 7.9556839 -41.38948059 7.70948792 C-39.36182078 7.2050088 -37.33345331 6.70336683 -35.30444336 6.2043457 C-32.20852159 5.44267184 -29.11486351 4.67231869 -26.02148438 3.90039062 C-24.04960662 3.41094456 -22.0776053 2.921996 -20.10546875 2.43359375 C-19.18340134 2.20441757 -18.26133392 1.97524139 -17.31132507 1.73912048 C-4.24172651 -1.46828995 -4.24172651 -1.46828995 0 0 Z " fill="#FDE6C4" transform="translate(1735,720)"/>
<path d="M0 0 C13.71809365 11.33233823 24.47403974 24.77515812 35 39 C35.99893415 40.33413205 36.99848893 41.66780131 38 43 C37.505 43.99 37.505 43.99 37 45 C31.76997353 42.20254398 29.88478269 39.34802896 27.22265625 34.109375 C25.62922598 31.36032597 23.53631612 29.86886451 21 28 C19.97388051 26.34928604 18.97691857 24.68029994 18 23 C15.36738197 19.59217958 12.73632916 16.56508982 9.3125 13.9375 C6.52140318 11.59901347 5.56157885 9.25894717 4 6 C2.68557638 4.64802142 1.3565164 3.30973998 0 2 C0 1.34 0 0.68 0 0 Z " fill="#E1873B" transform="translate(1708,517)"/>
<path d="M0 0 C0.66 0.33 1.32 0.66 2 1 C0 4 0 4 -2.4375 5.375 C-5.11569946 6.79349393 -5.11569946 6.79349393 -6.29296875 9.26171875 C-8.35540502 12.57011195 -10.96179609 14.90723567 -13.875 17.4375 C-20.28234593 23.03793578 -24.76922477 27.52305411 -27 36 C-28.21685605 38.4242424 -29.58154285 40.68318665 -31 43 C-32.81118579 38.18156234 -30.62007395 34.70401146 -28.65234375 30.234375 C-21.92601498 17.06794422 -11.73532051 8.49799071 0 0 Z " fill="#FDEED2" transform="translate(1495,824)"/>
<path d="M0 0 C4.52089996 1.67440739 8.6940375 3.85911056 12.9375 6.125 C13.69184326 6.52678467 14.44618652 6.92856934 15.22338867 7.3425293 C29.08918777 14.76442303 42.54064521 22.87144564 56 31 C55.01 31.495 55.01 31.495 54 32 C51.375 31.0625 51.375 31.0625 49 30 C49 29.34 49 28.68 49 28 C48.05125 27.855625 47.1025 27.71125 46.125 27.5625 C43 27 43 27 41 26 C41 25.34 41 24.68 41 24 C40.071875 23.7834375 40.071875 23.7834375 39.125 23.5625 C37 23 37 23 35 22 C35 21.34 35 20.68 35 20 C33.02 19.67 31.04 19.34 29 19 C28.67 18.01 28.34 17.02 28 16 C27.0925 15.87625 26.185 15.7525 25.25 15.625 C22.39003836 15.07500738 20.44010282 14.53636103 18 13 C17.67 12.34 17.34 11.68 17 11 C15.29607601 10.30914155 13.56030452 9.69580795 11.8125 9.125 C7.31708811 7.55043516 3.65873518 6.06542677 0 3 C0 2.01 0 1.02 0 0 Z " fill="#FDE9C6" transform="translate(1244,743)"/>
<path d="M0 0 C6.12096691 1.05486051 10.75506674 2.65217026 16 6 C16 6.66 16 7.32 16 8 C16.61875 8.12375 17.2375 8.2475 17.875 8.375 C20 9 20 9 22 11 C24.06874034 11.6425235 24.06874034 11.6425235 26 12 C26 12.66 26 13.32 26 14 C26.66 14 27.32 14 28 14 C28 14.66 28 15.32 28 16 C28.72574219 16.24492188 29.45148438 16.48984375 30.19921875 16.7421875 C33.31287937 18.14051207 35.31400755 19.81296221 37.8125 22.125 C38.60269531 22.84945312 39.39289063 23.57390625 40.20703125 24.3203125 C40.79871094 24.87460937 41.39039063 25.42890625 42 26 C38.76316594 26 37.96039954 25.59082327 35.296875 23.9453125 C34.57081055 23.50002197 33.84474609 23.05473145 33.09667969 22.59594727 C32.32227539 22.11053467 31.54787109 21.62512207 30.75 21.125 C29.95239258 20.6312085 29.15478516 20.13741699 28.33300781 19.62866211 C20.77464848 14.92082824 13.37100041 9.99411984 6 5 C5.42185547 4.62472168 4.84371094 4.24944336 4.24804688 3.86279297 C2.81636404 2.93219912 1.40584708 1.96918246 0 1 C0 0.67 0 0.34 0 0 Z " fill="#E58534" transform="translate(1395,833)"/>
<path d="M0 0 C6.17134113 3.2116163 12.0806849 6.66078231 17.875 10.5 C28.04367008 17.14189939 37.78982293 21.7239815 50 23 C50 23.33 50 23.66 50 24 C47.45767658 24.08152344 44.91800798 24.14073716 42.375 24.1875 C41.66214844 24.21263672 40.94929688 24.23777344 40.21484375 24.26367188 C35.34859512 24.3306386 32.28802404 23.52163277 28 21 C26.906875 20.525625 25.81375 20.05125 24.6875 19.5625 C22 18 22 18 21.125 15.8125 C21.08375 15.214375 21.0425 14.61625 21 14 C20.13375 13.9175 19.2675 13.835 18.375 13.75 C14.48892222 12.88642716 12.11499979 11.44749984 9 9 C9 8.34 9 7.68 9 7 C8.2575 6.896875 7.515 6.79375 6.75 6.6875 C3.78277013 5.94569253 2.19447117 5.11319446 0 3 C0 2.01 0 1.02 0 0 Z " fill="#FEEDCD" transform="translate(1412,845)"/>
<path d="M0 0 C2.04684079 2.59782938 3.646446 5.08943209 5.015625 8.09765625 C5.37648193 8.89018799 5.73733887 9.68271973 6.10913086 10.49926758 C6.48561768 11.34513428 6.86210449 12.19100098 7.25 13.0625 C7.6426001 13.93994873 8.0352002 14.81739746 8.43969727 15.72143555 C21.66165482 45.69924367 21.66165482 45.69924367 20.625 52.4375 C20.315625 53.2109375 20.315625 53.2109375 20 54 C19.72736328 52.96939453 19.72736328 52.96939453 19.44921875 51.91796875 C19.19785156 51.01691406 18.94648437 50.11585938 18.6875 49.1875 C18.44386719 48.29417969 18.20023438 47.40085937 17.94921875 46.48046875 C17.19950555 43.9893528 17.19950555 43.9893528 15.53027344 42.59936523 C13.75477171 40.74369966 13.27961074 39.38106766 12.56640625 36.9296875 C10.98892846 31.85503908 9.01521963 27.01284506 6.9375 22.125 C6.58623047 21.28453125 6.23496094 20.4440625 5.87304688 19.578125 C4.42320722 16.14674647 3.07533936 13.11300904 1 10 C0.5859375 7.51953125 0.5859375 7.51953125 0.375 4.8125 C0.30023437 3.91144531 0.22546875 3.01039063 0.1484375 2.08203125 C0.09945313 1.39496094 0.05046875 0.70789063 0 0 Z " fill="#E3883B" transform="translate(1764,592)"/>
<path d="M0 0 C0.9653064 0.00141495 1.93061279 0.0028299 2.9251709 0.00428772 C5.98139665 0.00984545 9.03754673 0.02238995 12.09375 0.03515625 C14.17708227 0.04017672 16.2604157 0.04473867 18.34375 0.04882812 C23.42711209 0.05980101 28.51041826 0.07703614 33.59375 0.09765625 C33.59375 0.42765625 33.59375 0.75765625 33.59375 1.09765625 C16.26875 1.59265625 16.26875 1.59265625 -1.40625 2.09765625 C-1.40625 2.42765625 -1.40625 2.75765625 -1.40625 3.09765625 C-3.01064941 3.22611938 -3.01064941 3.22611938 -4.64746094 3.35717773 C-8.62104578 3.67623026 -12.59426211 3.99968566 -16.56738281 4.32446289 C-18.2860356 4.46433439 -20.00478563 4.60301651 -21.72363281 4.74047852 C-24.19622992 4.93842921 -26.66844419 5.14067419 -29.140625 5.34375 C-30.29084137 5.43444008 -30.29084137 5.43444008 -31.46429443 5.52696228 C-34.88423982 5.8117187 -38.08784964 6.25568322 -41.40625 7.09765625 C-42.82159778 7.16222504 -44.23962689 7.18376664 -45.65625 7.16015625 C-47.5125 7.12921875 -47.5125 7.12921875 -49.40625 7.09765625 C-46.11017925 5.19939301 -43.1419037 4.59631826 -39.390625 4.0625 C-38.22144531 3.89298828 -37.05226563 3.72347656 -35.84765625 3.54882812 C-34.62949219 3.37931641 -33.41132812 3.20980469 -32.15625 3.03515625 C-30.95355469 2.86177734 -29.75085937 2.68839844 -28.51171875 2.50976562 C-25.14461251 2.02743043 -21.77710455 1.55306336 -18.40625 1.09765625 C-17.16584961 0.91605957 -15.92544922 0.73446289 -14.64746094 0.54736328 C-9.76584356 -0.05415734 -4.91218984 -0.02752326 0 0 Z " fill="#E18A40" transform="translate(1483.40625,429.90234375)"/>
<path d="M0 0 C0.59989243 0.02472885 1.19978485 0.0494577 1.81785583 0.07493591 C19.56389174 0.80324982 37.31222884 1.44706055 55.0625 2.0625 C57.69466349 2.15423847 60.32682496 2.24603507 62.95898438 2.33789062 C69.30596651 2.5592605 75.65297283 2.77992547 82 3 C82 3.33 82 3.66 82 4 C74.41876963 4.02336256 66.83754309 4.04103521 59.25628471 4.05181217 C55.73448269 4.05698942 52.21270563 4.06399101 48.69091797 4.07543945 C44.6246723 4.08857224 40.55845209 4.09327077 36.4921875 4.09765625 C35.25201874 4.10281754 34.01184998 4.10797882 32.73410034 4.11329651 C10.38234388 4.11470316 10.38234388 4.11470316 0 1 C0 0.67 0 0.34 0 0 Z " fill="#374563" transform="translate(1363,1074)"/>
<path d="M0 0 C-0.66 0.66 -1.32 1.32 -2 2 C-2.99 2 -3.98 2 -5 2 C-5 2.66 -5 3.32 -5 4 C-5.825 4.226875 -6.65 4.45375 -7.5 4.6875 C-11.09462665 6.03548499 -13.909589 7.74002308 -17.0703125 9.87890625 C-19.07975591 11.04633592 -20.74797178 11.47766646 -23 12 C-24.58950551 12.67310692 -26.17251881 13.36167635 -27.75 14.0625 C-32.45433905 15.99588563 -35.95492131 16.37370953 -41 16 C-37.73313165 13.28762771 -34.39469672 11.7601826 -30.4765625 10.15234375 C-29.54086929 9.76629723 -29.54086929 9.76629723 -28.58627319 9.37245178 C-27.27118909 8.83113086 -25.95496974 8.29256065 -24.63769531 7.7565918 C-22.63615228 6.94203856 -20.638151 6.11927035 -18.640625 5.29492188 C-2.59201868 -1.29600934 -2.59201868 -1.29600934 0 0 Z " fill="#FDEBCA" transform="translate(1656,741)"/>
<path d="M0 0 C0.33 0 0.66 0 1 0 C1.35046238 6.07468119 0.30992952 10.9932018 -1.27734375 16.84765625 C-2.00029405 20.00128269 -2.30685608 22.96158563 -2.5 26.1875 C-2.72843692 29.87104539 -3.16160411 32.87642595 -4.5 36.3125 C-6.45542376 41.51751686 -6.48313494 46.73644213 -6.75 52.24609375 C-7.08381662 57.25855897 -7.9494257 62.09392003 -9 67 C-9.33 67 -9.66 67 -10 67 C-10.1502695 59.68336936 -9.80098953 52.62413785 -8.8125 45.375 C-8.68302979 44.40296631 -8.55355957 43.43093262 -8.42016602 42.42944336 C-6.42824438 28.15873951 -3.60825748 13.95082038 0 0 Z " fill="#DF9049" transform="translate(1206,650)"/>
<path d="M0 0 C0.78375 0.04125 1.5675 0.0825 2.375 0.125 C-0.07135301 2.79892073 -2.76838027 4.61006459 -5.8125 6.5625 C-17.22745756 14.07561752 -28.04789126 22.48024767 -38.625 31.125 C-38.955 30.135 -39.285 29.145 -39.625 28.125 C-38.635 28.125 -37.645 28.125 -36.625 28.125 C-36.625 26.805 -36.625 25.485 -36.625 24.125 C-35.635 24.125 -34.645 24.125 -33.625 24.125 C-33.625 23.465 -33.625 22.805 -33.625 22.125 C-32.635 22.125 -31.645 22.125 -30.625 22.125 C-30.625 21.135 -30.625 20.145 -30.625 19.125 C-28.645 18.795 -26.665 18.465 -24.625 18.125 C-24.625 17.135 -24.625 16.145 -24.625 15.125 C-23.635 15.125 -22.645 15.125 -21.625 15.125 C-21.295 14.135 -20.965 13.145 -20.625 12.125 C-19.635 12.125 -18.645 12.125 -17.625 12.125 C-17.625 11.465 -17.625 10.805 -17.625 10.125 C-16.635 10.125 -15.645 10.125 -14.625 10.125 C-14.625 9.465 -14.625 8.805 -14.625 8.125 C-13.635 8.125 -12.645 8.125 -11.625 8.125 C-11.625 7.465 -11.625 6.805 -11.625 6.125 C-8.97761084 4.6643715 -7.73051666 4.125 -4.625 4.125 C-4.625 3.465 -4.625 2.805 -4.625 2.125 C-2.625 0.125 -2.625 0.125 0 0 Z " fill="#FEECCD" transform="translate(1338.625,472.875)"/>
<path d="M0 0 C4.97093824 0.41153737 9.44508386 0.79600832 14 3 C14 3.66 14 4.32 14 5 C14.61488281 5.20496094 15.22976563 5.40992188 15.86328125 5.62109375 C20.93164062 7.31054688 20.93164062 7.31054688 26 9 C26 9.66 26 10.32 26 11 C26.99 11 27.98 11 29 11 C29 11.66 29 12.32 29 13 C29.86625 13.1546875 29.86625 13.1546875 30.75 13.3125 C33.35661158 14.10896465 34.9735311 15.19065277 37 17 C37 17.66 37 18.32 37 19 C31.55586488 17.42452681 26.83424121 14.9271694 21.875 12.25 C20.18931559 11.3505994 18.50311714 10.45216158 16.81640625 9.5546875 C15.9980127 9.11866211 15.17961914 8.68263672 14.33642578 8.23339844 C9.60189944 5.73404347 4.80550487 3.35958922 0 1 C0 0.67 0 0.34 0 0 Z " fill="#E58734" transform="translate(1205,722)"/>
<path d="M0 0 C1.32 0.33 2.64 0.66 4 1 C3.25556641 1.72703125 3.25556641 1.72703125 2.49609375 2.46875 C-7.60975685 12.44036729 -16.94082697 23.30120043 -25 35 C-26 32 -26 32 -25 29 C-24.34 29 -23.68 29 -23 29 C-22.67 27.35 -22.34 25.7 -22 24 C-20.68 23.67 -19.36 23.34 -18 23 C-18 22.01 -18 21.02 -18 20 C-17.01 20 -16.02 20 -15 20 C-15 18.68 -15 17.36 -15 16 C-14.01 16 -13.02 16 -12 16 C-11.67 14.35 -11.34 12.7 -11 11 C-10.01 10.67 -9.02 10.34 -8 10 C-8 9.34 -8 8.68 -8 8 C-7.01 8 -6.02 8 -5 8 C-4.67 6.68 -4.34 5.36 -4 4 C-3.01 4 -2.02 4 -1 4 C-0.67 2.68 -0.34 1.36 0 0 Z " fill="#FEEDCD" transform="translate(1279,519)"/>
<path d="M0 0 C0.33 0 0.66 0 1 0 C1.495 7.92 1.495 7.92 2 16 C-1.40761711 17.70380856 -2.99326256 18.30360001 -6.578125 18.7109375 C-7.48062988 18.81946045 -8.38313477 18.9279834 -9.31298828 19.03979492 C-10.76680908 19.20572144 -10.76680908 19.20572144 -12.25 19.375 C-21.95221191 20.54982248 -31.56892748 22.02802904 -41.19238281 23.72998047 C-42.14209961 23.8951416 -43.09181641 24.06030273 -44.0703125 24.23046875 C-44.90320801 24.37895264 -45.73610352 24.52743652 -46.59423828 24.68041992 C-49.09076406 25.01205705 -51.48456465 25.05519501 -54 25 C-50.34701407 22.8269417 -46.50274885 22.20844026 -42.375 21.5 C-40.93872018 21.24264416 -39.50252204 20.9848321 -38.06640625 20.7265625 C-37.02250732 20.5414209 -37.02250732 20.5414209 -35.95751953 20.35253906 C-31.2011398 19.49593987 -26.44706456 18.56633273 -21.73828125 17.4765625 C-17.42536716 16.72595548 -13.07254388 16.60690754 -8.70703125 16.39453125 C-5.59360749 16.22576622 -2.9744417 15.99148057 0 15 C0 10.05 0 5.1 0 0 Z " fill="#DC9150" transform="translate(1795,692)"/>
<path d="M0 0 C0 0.33 0 0.66 0 1 C-4.92174758 2.53446464 -9.53678587 3.39936569 -14.6875 3.9375 C-22.72899339 4.84947973 -30.48833032 6.37579891 -38.125 9.125 C-42.3445925 10.4092238 -46.61518367 10.67070549 -51 11 C-48.35097031 7.54645018 -44.91965385 6.92636403 -40.875 6 C-40.17576416 5.83266357 -39.47652832 5.66532715 -38.75610352 5.49291992 C-26.11693006 2.54551129 -12.99783171 -0.22803214 0 0 Z " fill="#F0852B" transform="translate(1776,709)"/>
<path d="M0 0 C0 2 0 2 -1.57421875 3.62109375 C-2.27160156 4.22050781 -2.96898437 4.81992187 -3.6875 5.4375 C-4.37199219 6.03433594 -5.05648438 6.63117188 -5.76171875 7.24609375 C-8.08388924 9.0657352 -10.44822791 10.521653 -13 12 C-14.47146484 12.92039062 -14.47146484 12.92039062 -15.97265625 13.859375 C-16.99230469 14.48328125 -18.01195312 15.1071875 -19.0625 15.75 C-20.08472656 16.38421875 -21.10695313 17.0184375 -22.16015625 17.671875 C-25.28681863 19.13413801 -25.88300879 18.99710315 -29 18 C-5.17359855 0 -5.17359855 0 0 0 Z " fill="#F27F24" transform="translate(1347,471)"/>
<path d="M0 0 C0.99 0 1.98 0 3 0 C2.58771609 1.29307226 2.16979706 2.58434733 1.75 3.875 C1.40195313 4.95394531 1.40195313 4.95394531 1.046875 6.0546875 C0.14799009 8.58363983 -0.82804483 11.04802598 -1.84375 13.53125 C-4.24091527 19.47776644 -6.25203718 25.53491334 -8.25 31.625 C-8.61351562 32.72457031 -8.97703125 33.82414063 -9.3515625 34.95703125 C-10.23715622 37.63711752 -11.11991207 40.31810177 -12 43 C-12.33 43 -12.66 43 -13 43 C-12.88597936 40.72858891 -12.75841495 38.45785448 -12.625 36.1875 C-12.55539062 34.92292969 -12.48578125 33.65835938 -12.4140625 32.35546875 C-12 29 -12 29 -10 26 C-9.40678131 24.11966003 -8.86904181 22.22129792 -8.375 20.3125 C-8.11460938 19.31863281 -7.85421875 18.32476563 -7.5859375 17.30078125 C-7.39257812 16.54152344 -7.19921875 15.78226563 -7 15 C-6.01 15 -5.02 15 -4 15 C-3.81824219 14.00419922 -3.81824219 14.00419922 -3.6328125 12.98828125 C-2.77452292 8.46575541 -1.96028689 4.20061476 0 0 Z " fill="#FDE7C6" transform="translate(1220,604)"/>
<path d="M0 0 C8.20453655 4.55064017 16.24314657 9.32155356 24.1875 14.3125 C25.01290283 14.82780273 25.83830566 15.34310547 26.6887207 15.87402344 C27.46562256 16.36547852 28.24252441 16.85693359 29.04296875 17.36328125 C29.73414795 17.79938721 30.42532715 18.23549316 31.13745117 18.68481445 C32.97127648 19.97971771 34.46674499 21.36574319 36 23 C34.39402675 22.54803755 32.79027492 22.08817673 31.1875 21.625 C29.84751953 21.24214844 29.84751953 21.24214844 28.48046875 20.8515625 C26 20 26 20 23 18 C23 17.34 23 16.68 23 16 C22.21625 15.9175 21.4325 15.835 20.625 15.75 C19.325625 15.37875 19.325625 15.37875 18 15 C17.5359375 14.01 17.5359375 14.01 17.0625 13 C16.711875 12.34 16.36125 11.68 16 11 C13.09926819 10.32198966 13.09926819 10.32198966 10 10 C7.625 8.9375 7.625 8.9375 6 8 C6 7.34 6 6.68 6 6 C4.02 5.34 2.04 4.68 0 4 C0 2.68 0 1.36 0 0 Z " fill="#FEEBCA" transform="translate(1341,800)"/>
<path d="M0 0 C1.22589844 0.01353516 1.22589844 0.01353516 2.4765625 0.02734375 C3.10304688 0.03894531 3.72953125 0.05054688 4.375 0.0625 C1.72152223 1.47411763 -0.75669036 2.46914121 -3.67163086 3.19165039 C-4.45602036 3.38847916 -5.24040985 3.58530792 -6.04856873 3.7881012 C-7.30649986 4.09601845 -7.30649986 4.09601845 -8.58984375 4.41015625 C-9.46016739 4.62691513 -10.33049103 4.84367401 -11.22718811 5.06700134 C-14.00455289 5.7574103 -16.78351666 6.4411387 -19.5625 7.125 C-21.42913755 7.58878602 -23.29567521 8.0529743 -25.16210938 8.51757812 C-26.95043061 8.96130129 -28.73883924 9.4046724 -30.52734375 9.84765625 C-31.36394028 10.05495865 -32.2005368 10.26226105 -33.06248474 10.47584534 C-36.90371664 11.42050236 -40.73534749 12.33432716 -44.625 13.0625 C-43.9140625 11.109375 -43.9140625 11.109375 -42.625 9.0625 C-40.4609375 8.453125 -40.4609375 8.453125 -38 8.3125 C-37.18273438 8.25578125 -36.36546875 8.1990625 -35.5234375 8.140625 C-34.89695312 8.11484375 -34.27046875 8.0890625 -33.625 8.0625 C-33.625 7.4025 -33.625 6.7425 -33.625 6.0625 C-32.68140625 5.95292969 -31.7378125 5.84335937 -30.765625 5.73046875 C-20.67012483 4.4837353 -9.82581654 -0.14036881 0 0 Z " fill="#E18637" transform="translate(1720.625,719.9375)"/>
<path d="M0 0 C0.33 0.66 0.66 1.32 1 2 C-0.11332232 4.38655273 -1.28074346 6.64335584 -2.5625 8.9375 C-3.11514526 9.95239502 -3.11514526 9.95239502 -3.67895508 10.98779297 C-5.32350582 14.00155436 -6.99782274 16.99617223 -8.6953125 19.98046875 C-12.07321424 25.96695953 -14.55965731 31.91386068 -16.7265625 38.4453125 C-18 41 -18 41 -20.1484375 41.8671875 C-20.75945312 41.91101563 -21.37046875 41.95484375 -22 42 C-20.56411634 37.30992773 -18.65043144 32.98919723 -16.4375 28.625 C-16.09178955 27.93889648 -15.7460791 27.25279297 -15.38989258 26.54589844 C-12.76393723 21.38666161 -10.0156087 16.30098695 -7.1875 11.25 C-6.62857056 10.24960693 -6.62857056 10.24960693 -6.05834961 9.22900391 C-4.22092644 5.98864676 -2.32967484 2.91025627 0 0 Z " fill="#DD863D" transform="translate(1243,568)"/>
<path d="M0 0 C17.10409799 1.1215802 33.66201119 6.10424476 50 11 C50 11.33 50 11.66 50 12 C43.78060888 11.30331208 37.69590406 10.23653727 31.5625 9 C30.19834961 8.73316406 30.19834961 8.73316406 28.80664062 8.4609375 C27.94361328 8.28820312 27.08058594 8.11546875 26.19140625 7.9375 C25.40967041 7.78152344 24.62793457 7.62554687 23.82250977 7.46484375 C22 7 22 7 21 6 C19.53006335 5.64662129 18.04808057 5.34292941 16.5625 5.0625 C15.66789062 4.88847656 14.77328125 4.71445312 13.8515625 4.53515625 C11.95238258 4.17873481 10.05129099 3.83235142 8.1484375 3.49609375 C7.25382812 3.33238281 6.35921875 3.16867187 5.4375 3 C4.61121094 2.855625 3.78492188 2.71125 2.93359375 2.5625 C1.97646484 2.2840625 1.97646484 2.2840625 1 2 C0.67 1.34 0.34 0.68 0 0 Z " fill="#E08436" transform="translate(1539,433)"/>
<path d="M0 0 C1.37610086 2.75220172 0.81985462 4.06218762 0 7 C-1.485 9.475 -1.485 9.475 -3 12 C7.23 12 17.46 12 28 12 C28 12.33 28 12.66 28 13 C16.66560627 14.17759935 5.3815148 14.10492107 -6 14 C-5.33829918 7.66440479 -3.8783724 4.87282686 0 0 Z " fill="#35415E" transform="translate(1506,864)"/>
<path d="M0 0 C-3.18762996 1.6939786 -6.4221797 2.91518165 -9.83203125 4.09375 C-10.96060547 4.48433594 -12.08917969 4.87492187 -13.25195312 5.27734375 C-14.42693359 5.68082031 -15.60191406 6.08429688 -16.8125 6.5 C-17.97587891 6.90347656 -19.13925781 7.30695313 -20.33789062 7.72265625 C-25.8582469 9.62666075 -31.35955463 11.48490227 -37 13 C-37 12.34 -37 11.68 -37 11 C-36.38125 10.896875 -35.7625 10.79375 -35.125 10.6875 C-32.63473516 10.12474627 -32.63473516 10.12474627 -31 7 C-27.4200941 5.18222395 -24.16616744 4.66261451 -20.1875 4.375 C-19.21167969 4.30023438 -18.23585938 4.22546875 -17.23046875 4.1484375 C-16.49441406 4.09945313 -15.75835938 4.05046875 -15 4 C-15 3.34 -15 2.68 -15 2 C-13.43883181 1.66048381 -11.87598662 1.32867456 -10.3125 1 C-9.44238281 0.814375 -8.57226562 0.62875 -7.67578125 0.4375 C-5.06287036 0.01027953 -2.64186962 -0.07616201 0 0 Z " fill="#FEEBCB" transform="translate(1417,440)"/>
<path d="M0 0 C4.45433333 1.59265838 8.29848469 3.85598919 12.3125 6.3125 C12.97386963 6.71404297 13.63523926 7.11558594 14.31665039 7.52929688 C15.62207058 8.32316164 16.92638934 9.118841 18.22949219 9.91650391 C19.73601217 10.8384476 21.24649978 11.75390284 22.7578125 12.66796875 C24.5245378 13.74763421 26.26642626 14.86787021 28 16 C28 16.33 28 16.66 28 17 C21.74877173 16.5974899 17.75801783 14.45170788 12.5625 11.0625 C11.83095703 10.60681641 11.09941406 10.15113281 10.34570312 9.68164062 C6.40526375 7.16873671 6.40526375 7.16873671 5 6 C5 5.34 5 4.68 5 4 C4.01 4 3.02 4 2 4 C2 3.34 2 2.68 2 2 C1.34 2 0.68 2 0 2 C0 1.34 0 0.68 0 0 Z " fill="#FDE8C5" transform="translate(1303,777)"/>
<path d="M0 0 C0.66 0.33 1.32 0.66 2 1 C1.67314209 1.52730713 1.34628418 2.05461426 1.00952148 2.59790039 C-5.69494684 13.46156764 -11.95057016 24.26540952 -17 36 C-18.22419163 32.06204091 -17.48320272 29.83887763 -16 26 C-15.34 26 -14.68 26 -14 26 C-14 25.01 -14 24.02 -14 23 C-13.34 23 -12.68 23 -12 23 C-12 21.35 -12 19.7 -12 18 C-11.34 18 -10.68 18 -10 18 C-10 17.01 -10 16.02 -10 15 C-9.34 15 -8.68 15 -8 15 C-8 14.01 -8 13.02 -8 12 C-7.34 12 -6.68 12 -6 12 C-6 10.35 -6 8.7 -6 7 C-5.34 7 -4.68 7 -4 7 C-3.67 5.35 -3.34 3.7 -3 2 C-2.01 2 -1.02 2 0 2 C0 1.34 0 0.68 0 0 Z " fill="#FEEBCE" transform="translate(1241,568)"/>
<path d="M0 0 C4.81919471 0.67487737 8.91883866 2.57965909 13.3125 4.5625 C14.42334961 5.0565332 14.42334961 5.0565332 15.55664062 5.56054688 C17.37311562 6.36917123 19.18683931 7.18397116 21 8 C21 8.66 21 9.32 21 10 C21.8971875 10.433125 21.8971875 10.433125 22.8125 10.875 C25 12 25 12 28 14 C28 14.66 28 15.32 28 16 C23.04795358 14.69682989 19.12094691 12.3930708 14.8125 9.7265625 C10.68803758 7.19460085 6.47675836 4.81608506 2.2734375 2.41796875 C1.52320313 1.95003906 0.77296875 1.48210938 0 1 C0 0.67 0 0.34 0 0 Z " fill="#E28737" transform="translate(1259,750)"/>
<path d="M0 0 C-1.23919189 0.6798999 -1.23919189 0.6798999 -2.50341797 1.37353516 C-5.61674213 3.08292224 -8.72908715 4.79406723 -11.84082031 6.50634766 C-13.17865811 7.24206211 -14.51686414 7.97710743 -15.85546875 8.71142578 C-17.79788957 9.7771402 -19.73918628 10.84485698 -21.6796875 11.9140625 C-22.31090515 12.26180725 -22.9421228 12.609552 -23.59246826 12.96783447 C-28.18968805 15.51541484 -32.69394699 18.19161662 -37.14892578 20.98193359 C-39 22 -39 22 -41 22 C-40 19 -40 19 -37.34765625 17.39453125 C-36.26355469 16.87246094 -35.17945313 16.35039063 -34.0625 15.8125 C-32.98097656 15.28269531 -31.89945313 14.75289062 -30.78515625 14.20703125 C-28 13 -28 13 -26 13 C-26 12.34 -26 11.68 -26 11 C-24.73308493 10.32591692 -23.46129251 9.66099503 -22.1875 9 C-21.47980469 8.62875 -20.77210937 8.2575 -20.04296875 7.875 C-18 7 -18 7 -15 7 C-15 6.34 -15 5.68 -15 5 C-9.25 2 -9.25 2 -7 2 C-7 1.34 -7 0.68 -7 0 C-3.86650268 -1.04449911 -3.01031744 -0.93423645 0 0 Z " fill="#D98A42" transform="translate(1572,779)"/>
<path d="M0 0 C-1.14831299 0.54358154 -1.14831299 0.54358154 -2.31982422 1.09814453 C-5.21060864 2.4695763 -8.09914605 3.8456119 -10.98632812 5.22460938 C-12.22668308 5.81592647 -13.46787046 6.40550125 -14.70996094 6.99316406 C-21.73824206 10.31995949 -28.54936397 13.75110813 -35.11376953 17.92919922 C-37 19 -37 19 -39 19 C-39 18.01 -39 17.02 -39 16 C-37.35 16 -35.7 16 -34 16 C-34 15.01 -34 14.02 -34 13 C-32.35 13 -30.7 13 -29 13 C-29 12.34 -29 11.68 -29 11 C-27.88625 10.566875 -26.7725 10.13375 -25.625 9.6875 C-21.82487666 8.30088881 -21.82487666 8.30088881 -20 5 C-18.3674239 4.50023181 -16.72951263 4.01202608 -15.0703125 3.609375 C-11.9130166 2.68005772 -9.04790976 1.18216423 -6.11328125 -0.29296875 C-3.61586758 -1.1285175 -2.47620443 -0.7214037 0 0 Z " fill="#FEE6C0" transform="translate(1380,454)"/>
<path d="M0 0 C7.92651152 0.12402792 14.12498881 0.40043824 20.83203125 4.8046875 C24.05011959 6.57898486 27.31643239 6.93442811 30.93359375 7.34765625 C33 8 33 8 34.12915039 10.04077148 C34.41653076 10.68731689 34.70391113 11.3338623 35 12 C27.25514032 9.71597844 19.56186632 7.2839169 11.875 4.8125 C10.72773437 4.44447266 9.58046875 4.07644531 8.3984375 3.69726562 C5.59868882 2.79901292 2.7992169 1.89990824 0 1 C0 0.67 0 0.34 0 0 Z " fill="#FCE5C2" transform="translate(1576,440)"/>
<path d="M0 0 C5.94 0 11.88 0 18 0 C18 0.33 18 0.66 18 1 C17.10244995 1.15819214 17.10244995 1.15819214 16.18676758 1.31958008 C13.39471469 1.81374636 10.60348251 2.31232312 7.8125 2.8125 C6.80977051 2.99192139 5.80704102 3.17134277 4.77392578 3.35620117 C-1.73630944 4.53887816 -8.14008711 5.8922214 -14.5390625 7.58203125 C-17.07771327 8.01319892 -18.58834593 7.83219049 -21 7 C-20.34 7 -19.68 7 -19 7 C-19 6.34 -19 5.68 -19 5 C-16.03 5 -13.06 5 -10 5 C-10 4.34 -10 3.68 -10 3 C-6.7 2.67 -3.4 2.34 0 2 C0 1.34 0 0.68 0 0 Z " fill="#FCE2BA" transform="translate(1438,432)"/>
<path d="M0 0 C0.33 0.99 0.66 1.98 1 3 C-0.14453125 5.26171875 -0.14453125 5.26171875 -1.8125 7.6875 C-2.35519531 8.49574219 -2.89789062 9.30398438 -3.45703125 10.13671875 C-3.96621094 10.75160156 -4.47539063 11.36648438 -5 12 C-5.66 12 -6.32 12 -7 12 C-7.25523438 12.59296875 -7.51046875 13.1859375 -7.7734375 13.796875 C-9.11816498 16.21224538 -10.49214367 17.51211706 -12.625 19.25 C-13.25664063 19.77078125 -13.88828125 20.2915625 -14.5390625 20.828125 C-15.02117187 21.21484375 -15.50328125 21.6015625 -16 22 C-16.66 21.67 -17.32 21.34 -18 21 C-12.20571915 13.79481861 -6.25204593 6.81369545 0 0 Z " fill="#E48432" transform="translate(1277,525)"/>
<path d="M0 0 C6.49614132 -0.05064837 12.99223185 -0.0857117 19.48852539 -0.10986328 C21.69915673 -0.11993006 23.90977472 -0.13358448 26.12036133 -0.15087891 C29.29511811 -0.17509738 32.46969906 -0.18647627 35.64453125 -0.1953125 C36.63524124 -0.20563507 37.62595123 -0.21595764 38.64668274 -0.22659302 C39.56741074 -0.22674408 40.48813873 -0.22689514 41.43676758 -0.22705078 C42.65255241 -0.23371262 42.65255241 -0.23371262 43.89289856 -0.24050903 C46 0 46 0 49 2 C45.54210946 2.19635974 42.08367803 2.38058252 38.625 2.5625 C37.64015625 2.61857422 36.6553125 2.67464844 35.640625 2.73242188 C34.22910156 2.80493164 34.22910156 2.80493164 32.7890625 2.87890625 C31.91975098 2.9260376 31.05043945 2.97316895 30.15478516 3.02172852 C28 3 28 3 26 2 C24.04225931 1.84621148 22.07982648 1.75028537 20.1171875 1.68359375 C18.95058594 1.64169922 17.78398438 1.59980469 16.58203125 1.55664062 C15.35871094 1.51732422 14.13539062 1.47800781 12.875 1.4375 C11.64394531 1.39431641 10.41289063 1.35113281 9.14453125 1.30664062 C6.09647147 1.20031296 3.0483281 1.09828219 0 1 C0 0.67 0 0.34 0 0 Z " fill="#394562" transform="translate(1796,747)"/>
<path d="M0 0 C6.8133894 -0.68133894 11.51536972 2.34357981 17 6 C17 6.66 17 7.32 17 8 C18.32 8 19.64 8 21 8 C23.25 10.5 23.25 10.5 25 13 C21.44594214 13 19.98303423 12.08885136 16.89453125 10.375 C15.91162109 9.83359375 14.92871094 9.2921875 13.91601562 8.734375 C12.89185547 8.16203125 11.86769531 7.5896875 10.8125 7 C9.77673828 6.42765625 8.74097656 5.8553125 7.67382812 5.265625 C5.11271666 3.84934216 2.55499454 2.42727936 0 1 C0 0.67 0 0.34 0 0 Z " fill="#FDEBCE" transform="translate(1631,461)"/>
<path d="M0 0 C10.38659157 -0.17178841 20.28449507 1.31480848 30 5 C30 5.66 30 6.32 30 7 C23.44151546 6.25826663 16.9880122 5.14229492 10.5 3.9375 C9.48679687 3.75123047 8.47359375 3.56496094 7.4296875 3.37304688 C4.95274538 2.91738299 2.47620374 2.4596565 0 2 C0 1.34 0 0.68 0 0 Z " fill="#1C2A4E" transform="translate(1195,1039)"/>
<path d="M0 0 C13.48089157 -0.18694611 26.77022964 0.16701383 40 3 C40.495 4.485 40.495 4.485 41 6 C34.69366582 5.34084547 28.45020349 4.48485083 22.1875 3.5 C14.80552437 2.36172841 7.46186012 1.43982509 0 1 C0 0.67 0 0.34 0 0 Z " fill="#FDD6A6" transform="translate(1517,430)"/>
<path d="M0 0 C0.66 0 1.32 0 2 0 C0.56335628 8.08442298 -1.00292116 16.13840527 -2.625 24.1875 C-2.85445312 25.33025391 -3.08390625 26.47300781 -3.3203125 27.65039062 C-3.87931836 30.43377395 -4.43922866 33.21697193 -5 36 C-5.33 36 -5.66 36 -6 36 C-6.37912212 28.86688748 -5.64174457 22.81067676 -3.7265625 15.9375 C-2.82980222 12.31188855 -2.51025206 8.78010619 -2.30859375 5.05859375 C-2 3 -2 3 0 0 Z " fill="#FEE1BA" transform="translate(1205,647)"/>
<path d="M0 0 C0.79921875 0.00902344 1.5984375 0.01804687 2.421875 0.02734375 C3.02515625 0.03894531 3.6284375 0.05054688 4.25 0.0625 C1.33816371 2.00372419 -0.99107127 2.92465036 -4.29296875 4.0078125 C-5.36611328 4.36230469 -6.43925781 4.71679688 -7.54492188 5.08203125 C-8.66447266 5.44683594 -9.78402344 5.81164062 -10.9375 6.1875 C-12.63422852 6.74630859 -12.63422852 6.74630859 -14.36523438 7.31640625 C-17.15885281 8.23582497 -19.95378516 9.15101441 -22.75 10.0625 C-22.75 9.4025 -22.75 8.7425 -22.75 8.0625 C-20.50243216 6.91167315 -18.25218252 5.76673142 -16 4.625 C-15.04867188 4.13676758 -15.04867188 4.13676758 -14.078125 3.63867188 C-9.11120695 1.12934348 -5.52553194 -0.08125782 0 0 Z " fill="#E9832C" transform="translate(1669.75,732.9375)"/>
<path d="M0 0 C8.91 0 17.82 0 27 0 C22.56704258 3.32471807 21.56351543 3.36267783 16.265625 3.29296875 C14.97011719 3.28330078 13.67460938 3.27363281 12.33984375 3.26367188 C10.97655646 3.23860783 9.61327521 3.21321302 8.25 3.1875 C6.87110816 3.17244518 5.49220065 3.15875817 4.11328125 3.14648438 C0.74179085 3.11111909 -2.62890654 3.06175904 -6 3 C-6 2.67 -6 2.34 -6 2 C-4.02 2 -2.04 2 0 2 C0 1.34 0 0.68 0 0 Z " fill="#3F4A6B" transform="translate(1594,912)"/>
<path d="M0 0 C3 2 3 2 3.69189453 3.95532227 C3.83739746 4.73447998 3.98290039 5.5136377 4.1328125 6.31640625 C4.38224609 7.58581055 4.38224609 7.58581055 4.63671875 8.88085938 C4.79785156 9.76580078 4.95898438 10.65074219 5.125 11.5625 C5.4578468 13.31439212 5.79362737 15.06573025 6.1328125 16.81640625 C6.27605957 17.59443604 6.41930664 18.37246582 6.56689453 19.17407227 C6.83324029 21.0081806 6.83324029 21.0081806 8 22 C8.93119789 27.0698552 9.08997924 31.87118304 9 37 C8.67 37 8.34 37 8 37 C7.82871582 36.21351074 7.65743164 35.42702148 7.48095703 34.61669922 C6.69901327 31.03538624 5.91205667 27.45519265 5.125 23.875 C4.85558594 22.6375 4.58617187 21.4 4.30859375 20.125 C4.04433594 18.92617188 3.78007813 17.72734375 3.5078125 16.4921875 C3.26691895 15.39245605 3.02602539 14.29272461 2.77783203 13.15966797 C2.04460423 9.97186105 2.04460423 9.97186105 0.90576172 6.84423828 C0 4 0 4 0 0 Z " fill="#FDE0B7" transform="translate(1785,642)"/>
<path d="M0 0 C0.33 0.66 0.66 1.32 1 2 C1.66 2 2.32 2 3 2 C3.33 3.98 3.66 5.96 4 8 C4.66 8 5.32 8 6 8 C8.4793824 14.24273068 9.31985731 19.28299653 9 26 C6.28743894 21.93115841 4.96929 17.60140611 3.375 13 C3.05015625 12.08476563 2.7253125 11.16953125 2.390625 10.2265625 C2.08382813 9.34742188 1.77703125 8.46828125 1.4609375 7.5625 C1.18040527 6.75941406 0.89987305 5.95632813 0.61083984 5.12890625 C0 3 0 3 0 0 Z " fill="#FDE8C6" transform="translate(1776,616)"/>
<path d="M0 0 C-0.0625 1.75 -0.0625 1.75 -1 4 C-5.69964834 7.28975384 -9.32241324 8.53652353 -15 9 C-15.33 9.99 -15.66 10.98 -16 12 C-17.32 11.67 -18.64 11.34 -20 11 C-17.93771746 9.72881267 -15.87518109 8.45804035 -13.8125 7.1875 C-13.23435547 6.83107422 -12.65621094 6.47464844 -12.06054688 6.10742188 C-10.37503007 5.06944825 -8.68753975 4.03468147 -7 3 C-6.07574219 2.41863281 -5.15148438 1.83726562 -4.19921875 1.23828125 C-2 0 -2 0 0 0 Z " fill="#FEEECE" transform="translate(1540,797)"/>
<path d="M0 0 C0 0.66 0 1.32 0 2 C-0.99 2 -1.98 2 -3 2 C-3.33 2.99 -3.66 3.98 -4 5 C-5.48828125 6.38671875 -5.48828125 6.38671875 -7.3125 7.6875 C-8.20388672 8.34298828 -8.20388672 8.34298828 -9.11328125 9.01171875 C-11 10 -11 10 -15 10 C-15.309375 10.9590625 -15.309375 10.9590625 -15.625 11.9375 C-17 14 -17 14 -20.125 14.75 C-21.548125 14.87375 -21.548125 14.87375 -23 15 C-19.35018784 10.90128046 -14.95918469 8.1804939 -10.375 5.25 C-9.59898438 4.74339844 -8.82296875 4.23679687 -8.0234375 3.71484375 C-2.25591728 0 -2.25591728 0 0 0 Z " fill="#FDE7C1" transform="translate(1520,809)"/>
<path d="M0 0 C-0.33 0.99 -0.66 1.98 -1 3 C-8.01558052 6.14536174 -15.44409601 6.39460234 -23 6 C-19.3672388 3.94267095 -15.50916232 2.92594546 -11.5 1.875 C-10.83613281 1.69324219 -10.17226562 1.51148438 -9.48828125 1.32421875 C-6.16854651 0.44293188 -3.4651581 0 0 0 Z " fill="#313C5C" transform="translate(1721,760)"/>
<path d="M0 0 C1.32 0.33 2.64 0.66 4 1 C4 2.32 4 3.64 4 5 C4.66 5 5.32 5 6 5 C10 11.75 10 11.75 10 14 C10.66 14 11.32 14 12 14 C14.5393228 17.41831915 15.3636198 19.75776898 15 24 C11.65762102 20.03950984 8.99848963 15.88431493 6.375 11.4375 C5.98054688 10.77814453 5.58609375 10.11878906 5.1796875 9.43945312 C3.33753758 6.34327209 1.54275114 3.25968385 0 0 Z " fill="#FDE4BE" transform="translate(1745,559)"/>
<path d="M0 0 C4.38585753 -0.16868683 7.15524966 -0.05053352 11 2 C13.66709069 2.16750414 13.66709069 2.16750414 16 2 C16 2.99 16 3.98 16 5 C16.66 5 17.32 5 18 5 C18 5.66 18 6.32 18 7 C18.66 7 19.32 7 20 7 C20 7.66 20 8.32 20 9 C15.42111848 7.54884678 11.02350565 5.79418096 6.625 3.875 C5.98433594 3.59785156 5.34367187 3.32070313 4.68359375 3.03515625 C3.12143075 2.35899615 1.56057685 1.67981293 0 1 C0 0.67 0 0.34 0 0 Z " fill="#FDE3C0" transform="translate(1611,452)"/>
<path d="M0 0 C4.62675657 1.3922459 8.64686231 3.29520984 12.875 5.625 C14.02742188 6.25664063 15.17984375 6.88828125 16.3671875 7.5390625 C17.67042969 8.26222656 17.67042969 8.26222656 19 9 C19 9.33 19 9.66 19 10 C14.78121808 10.19622241 11.82989106 9.80230168 8 8 C8 7.34 8 6.68 8 6 C7.4225 5.896875 6.845 5.79375 6.25 5.6875 C3.64338842 4.89103535 2.0264689 3.80934723 0 2 C0 1.34 0 0.68 0 0 Z " fill="#FEEECC" transform="translate(1225,733)"/>
<path d="M0 0 C2.6875 0.0625 2.6875 0.0625 6 1 C7.54339842 2.70233918 8.7195517 4.45047076 9.921875 6.40625 C10.9219781 8.16526457 10.9219781 8.16526457 13 9 C13 9.66 13 10.32 13 11 C13.66 11 14.32 11 15 11 C15.33 12.65 15.66 14.3 16 16 C10.35573231 11.31645873 4.9941954 6.3792354 0 1 C0 0.67 0 0.34 0 0 Z " fill="#FEEACB" transform="translate(1708,516)"/>
<path d="M0 0 C5.80927836 -0.2371134 10.39754938 0.29077778 16 2 C19.9881843 2.74338952 23.9907686 3.38116954 28 4 C27.67 4.66 27.34 5.32 27 6 C20.67250629 5.39828638 14.62404348 4.37848091 8.4375 2.9375 C7.61958984 2.75123047 6.80167969 2.56496094 5.95898438 2.37304688 C3.97164104 1.91979313 1.98566799 1.46053788 0 1 C0 0.67 0 0.34 0 0 Z " fill="#323E5F" transform="translate(1320,1068)"/>
<path d="M0 0 C0.79622772 0.06800308 1.59245544 0.13600616 2.41281128 0.20606995 C4.96060643 0.42492666 7.50761368 0.65182294 10.0546875 0.87890625 C11.7799021 1.02852405 13.5051621 1.17761927 15.23046875 1.32617188 C19.46409276 1.69185049 23.69702733 2.0647418 27.9296875 2.44140625 C27.9296875 2.77140625 27.9296875 3.10140625 27.9296875 3.44140625 C24.9596875 3.44140625 21.9896875 3.44140625 18.9296875 3.44140625 C18.5996875 4.10140625 18.2696875 4.76140625 17.9296875 5.44140625 C16.96546875 5.12171875 16.00125 4.80203125 15.0078125 4.47265625 C9.82068128 2.98912627 4.60891323 3.02146547 -0.75 2.875 C-6.76705995 2.64357462 -6.76705995 2.64357462 -10.0703125 0.44140625 C-6.86313108 -1.16218446 -3.48116204 -0.31707009 0 0 Z " fill="#212E50" transform="translate(1537.0703125,914.55859375)"/>
<path d="M0 0 C8.98010895 4.50838123 16.94465525 10.04962855 25 16 C21.63497392 16 20.83733775 15.4508149 18.125 13.625 C15.76534016 12.08081084 13.76659178 10.90866635 11.125 9.875 C9 9 9 9 7 6 C5.2820354 4.79517061 5.2820354 4.79517061 3.375 3.8125 C2.26125 3.214375 1.1475 2.61625 0 2 C0 1.34 0 0.68 0 0 Z " fill="#DB8B47" transform="translate(1650,472)"/>
<path d="M0 0 C-3.41843654 1.10992805 -6.09802418 0.91249678 -9.640625 0.44140625 C-10.71054688 0.30283203 -11.78046875 0.16425781 -12.8828125 0.02148438 C-13.99398438 -0.12998047 -15.10515625 -0.28144531 -16.25 -0.4375 C-17.37664062 -0.58509766 -18.50328125 -0.73269531 -19.6640625 -0.88476562 C-22.44365585 -1.2498817 -25.2221528 -1.62186539 -28 -2 C-28 -2.33 -28 -2.66 -28 -3 C-17.78294776 -4.38644759 -9.65881931 -3.63062002 0 0 Z " fill="#3E4A68" transform="translate(2035,900)"/>
<path d="M0 0 C0 0.99 0 1.98 0 3 C-3 5 -3 5 -6.4375 5.9375 C-9.91939236 6.74910789 -9.91939236 6.74910789 -12.0625 8.5625 C-14.61026774 10.45277929 -16.89069742 10.64667016 -20 11 C-17.9861609 8.84261682 -16.09796497 7.34234338 -13.49609375 5.95703125 C-12.50899414 5.43012695 -12.50899414 5.43012695 -11.50195312 4.89257812 C-10.82068359 4.53615234 -10.13941406 4.17972656 -9.4375 3.8125 C-8.75236328 3.44447266 -8.06722656 3.07644531 -7.36132812 2.69726562 C-2.26204487 0 -2.26204487 0 0 0 Z " fill="#DE883A" transform="translate(1367,460)"/>
<path d="M0 0 C0 0.66 0 1.32 0 2 C-11.52164009 6.22323462 -11.52164009 6.22323462 -17 8 C-17.99 7.01 -18.98 6.02 -20 5 C-17.23058394 4.16169027 -14.45964931 3.32917966 -11.6875 2.5 C-10.50897461 2.14228516 -10.50897461 2.14228516 -9.30664062 1.77734375 C-8.54931641 1.55175781 -7.79199219 1.32617188 -7.01171875 1.09375 C-6.31522217 0.88427734 -5.61872559 0.67480469 -4.90112305 0.45898438 C-3 0 -3 0 0 0 Z " fill="#394663" transform="translate(1049,963)"/>
<path d="M0 0 C1.41750563 0.11509661 2.83401169 0.24253658 4.25 0.375 C5.03890625 0.44460938 5.8278125 0.51421875 6.640625 0.5859375 C9.1056534 1.01854182 10.78347959 1.87414836 13 3 C15.66353755 3.51520982 18.29499131 3.72949913 21 4 C21.33 3.01 21.66 2.02 22 1 C22 2.65 22 4.3 22 6 C13.9253457 6.44859191 6.39839456 5.23905243 0 0 Z " fill="#DA863C" transform="translate(1441,862)"/>
<path d="M0 0 C3.79303725 1.00193437 6.71536341 1.81024227 10 4 C10 4.66 10 5.32 10 6 C12.64 6.66 15.28 7.32 18 8 C18 8.99 18 9.98 18 11 C19.2065625 11.433125 19.2065625 11.433125 20.4375 11.875 C23 13 23 13 24 15 C20.53166989 13.70363929 17.48470086 12.18997707 14.35546875 10.21484375 C13.51435547 9.68439453 12.67324219 9.15394531 11.80664062 8.60742188 C10.94232422 8.05634766 10.07800781 7.50527344 9.1875 6.9375 C8.30384766 6.38255859 7.42019531 5.82761719 6.50976562 5.25585938 C1.6766466 2.19177388 1.6766466 2.19177388 0 1 C0 0.67 0 0.34 0 0 Z " fill="#D98A41" transform="translate(1339,798)"/>
<path d="M0 0 C0.33 0 0.66 0 1 0 C0.9278125 0.73863281 0.855625 1.47726562 0.78125 2.23828125 C0.58686989 4.36296381 0.41234934 6.4895232 0.25390625 8.6171875 C0.09220877 10.77149546 -0.10458773 12.92366242 -0.34765625 15.0703125 C-0.56113131 17.91923419 -0.6688019 20.21870658 0 23 C2.39773669 25.36625656 4.96859558 26.60609529 8 28 C8 28.33 8 28.66 8 29 C1.53671209 28.51220469 1.53671209 28.51220469 -0.7109375 26.3671875 C-4.70555041 19.03162561 -2.00321627 7.76246303 0 0 Z " fill="#FEE2BB" transform="translate(1197,694)"/>
<path d="M0 0 C0.33 0.66 0.66 1.32 1 2 C-0.1764088 4.51026626 -1.40431828 6.89534225 -2.75 9.3125 C-3.29140625 10.30926758 -3.29140625 10.30926758 -3.84375 11.32617188 C-4.88108003 13.22606438 -5.93944052 15.11301041 -7 17 C-7.52078125 17.96292969 -8.0415625 18.92585937 -8.578125 19.91796875 C-10 22 -10 22 -13 23 C-11.26946315 18.05560901 -8.60713969 13.72834891 -5.9375 9.25 C-5.47794922 8.47011719 -5.01839844 7.69023438 -4.54492188 6.88671875 C-1.14457289 1.14457289 -1.14457289 1.14457289 0 0 Z " fill="#DF8E49" transform="translate(1243,568)"/>
<path d="M0 0 C1.66482422 0.00966797 1.66482422 0.00966797 3.36328125 0.01953125 C6.54555714 0.1803278 9.55943763 0.59596022 12.6875 1.1875 C12.3575 1.8475 12.0275 2.5075 11.6875 3.1875 C4.61028069 3.30859311 -2.28445301 3.04123239 -9.3125 2.1875 C-5.76163328 -0.17974448 -4.20075741 -0.05329681 0 0 Z " fill="#212F53" transform="translate(1086.3125,1022.8125)"/>
<path d="M0 0 C1.41655793 -0.0272415 2.83327045 -0.04650467 4.25 -0.0625 C5.43335938 -0.07990234 5.43335938 -0.07990234 6.640625 -0.09765625 C8.9263085 -0.00305015 10.80027329 0.40642295 13 1 C14.41366158 1.20895363 15.83060623 1.39690406 17.25 1.5625 C18.4875 1.706875 19.725 1.85125 21 2 C21 2.66 21 3.32 21 4 C14.4 3.67 7.8 3.34 1 3 C0.67 2.01 0.34 1.02 0 0 Z " fill="#1A294D" transform="translate(1982,893)"/>
<path d="M0 0 C0.99 0.33 1.98 0.66 3 1 C1.33333333 2.66666667 -0.33333333 4.33333333 -2 6 C-2.825 6.886875 -3.65 7.77375 -4.5 8.6875 C-6.96992246 10.97217828 -8.82133822 12.00099201 -12 13 C-12 12.01 -12 11.02 -12 10 C-9.62890625 7.7734375 -9.62890625 7.7734375 -6.5625 5.375 C-5.55316406 4.57835937 -4.54382813 3.78171875 -3.50390625 2.9609375 C-2.67761719 2.31382812 -1.85132813 1.66671875 -1 1 C-0.67 0.67 -0.34 0.34 0 0 Z " fill="#182549" transform="translate(714,823)"/>
<path d="M0 0 C0.66 0.33 1.32 0.66 2 1 C-7.41002278 11.55808656 -7.41002278 11.55808656 -12 16 C-12.66 15.67 -13.32 15.34 -14 15 C-10.25 10.125 -10.25 10.125 -8 9 C-7.566875 8.236875 -7.13375 7.47375 -6.6875 6.6875 C-4.82481781 3.72100615 -2.81138478 2.05155106 0 0 Z " fill="#F37B17" transform="translate(1316,490)"/>
<path d="M0 0 C0.99 0.33 1.98 0.66 3 1 C1.35 2.98 -0.3 4.96 -2 7 C-1.01 7.99 -0.02 8.98 1 10 C-2.3 10.33 -5.6 10.66 -9 11 C-2.97321429 2.83035714 -2.97321429 2.83035714 0 0 Z " fill="#2F3A55" transform="translate(693,842)"/>
<path d="M0 0 C-6.60329738 3.35784696 -12.66984177 4.44951381 -20 5 C-14.62861218 -0.85240762 -7.40935997 -0.26834704 0 0 Z " fill="#E3832F" transform="translate(1745,715)"/>
<path d="M0 0 C0.33 0 0.66 0 1 0 C1.34654672 6.35335655 0.30144326 11.09483339 -2 17 C-2.5878125 18.5159375 -2.5878125 18.5159375 -3.1875 20.0625 C-3.455625 20.701875 -3.72375 21.34125 -4 22 C-5.26590752 18.20227743 -4.4924182 15.36127686 -3.6875 11.5625 C-3.55666016 10.89412109 -3.42582031 10.22574219 -3.29101562 9.53710938 C-2.58413872 6.09151131 -1.78402184 3.04608097 0 0 Z " fill="#EF791C" transform="translate(1220,610)"/>
<path d="M0 0 C-6.11647238 4.42916966 -14.49483943 6.60852653 -22 6 C-18.67091833 3.78061222 -15.31854136 2.57651775 -11.5625 1.3125 C-10.89412109 1.07466797 -10.22574219 0.83683594 -9.53710938 0.59179688 C-3.4625144 -1.46116337 -3.4625144 -1.46116337 0 0 Z " fill="#FBE2BD" transform="translate(1678,734)"/>
<path d="M0 0 C0.33 0 0.66 0 1 0 C1.125 7.75 1.125 7.75 0 10 C-0.27485459 12.78781084 -0.44612738 15.57535455 -0.62109375 18.37109375 C-1 21 -1 21 -3 24 C-3.30654742 15.38261147 -3.39589303 8.06524596 0 0 Z " fill="#F07D1F" transform="translate(1202,682)"/>
<path d="M0 0 C0.66 0.66 1.32 1.32 2 2 C-3.94 7.445 -3.94 7.445 -10 13 C-10.33 12.34 -10.66 11.68 -11 11 C-8.82247084 5.77393003 -4.50043852 3.11075442 0 0 Z " fill="#1B274A" transform="translate(1517,855)"/>
<path d="M0 0 C0 2 0 2 -1.0625 3.5625 C-3.86337489 5.64056847 -6.58791584 5.67810527 -10 6 C-10.33 6.99 -10.66 7.98 -11 9 C-14 11 -14 11 -16.1875 10.625 C-16.785625 10.41875 -17.38375 10.2125 -18 10 C-15.70912072 8.51960151 -13.41734017 7.04063324 -11.125 5.5625 C-10.47402344 5.14162109 -9.82304688 4.72074219 -9.15234375 4.28710938 C-2.49875 0 -2.49875 0 0 0 Z " fill="#DE8D48" transform="translate(1347,471)"/>
<path d="M0 0 C-2 2 -2 2 -4.79736328 2.13525391 C-5.95993652 2.08288574 -7.12250977 2.03051758 -8.3203125 1.9765625 C-9.57714844 1.925 -10.83398438 1.8734375 -12.12890625 1.8203125 C-13.46094835 1.75543074 -14.7929795 1.69032366 -16.125 1.625 C-17.46480294 1.56676177 -18.80464687 1.50945844 -20.14453125 1.453125 C-23.43020732 1.31129726 -26.71515936 1.15985087 -30 1 C-30 0.67 -30 0.34 -30 0 C-8.99082569 -1.34862385 -8.99082569 -1.34862385 0 0 Z " fill="#596481" transform="translate(1755,995)"/>
<path d="M0 0 C3.73487777 0.4979837 5.81237635 0.87491756 9 3 C10.99172182 3.69100553 12.99161804 4.35902703 15 5 C15.66 5.33 16.32 5.66 17 6 C17 6.99 17 7.98 17 9 C10.83643195 7.3341708 5.51740344 4.12194714 0 1 C0 0.67 0 0.34 0 0 Z " fill="#E0812D" transform="translate(1242,741)"/>
<path d="M0 0 C16.70842825 -0.3690205 16.70842825 -0.3690205 25 2 C24.34 2.66 23.68 3.32 23 4 C20.66162109 3.95166016 20.66162109 3.95166016 17.7734375 3.5390625 C16.7421875 3.39726563 15.7109375 3.25546875 14.6484375 3.109375 C13.56820313 2.94953125 12.48796875 2.7896875 11.375 2.625 C9.74304687 2.39683594 9.74304687 2.39683594 8.078125 2.1640625 C5.38385539 1.7859194 2.6914711 1.39749597 0 1 C0 0.67 0 0.34 0 0 Z " fill="#3E4B69" transform="translate(1612,878)"/>
<path d="M0 0 C0 0.99 0 1.98 0 3 C-2.046875 4.640625 -2.046875 4.640625 -4.75 6.25 C-5.63171875 6.79140625 -6.5134375 7.3328125 -7.421875 7.890625 C-10 9 -10 9 -12.328125 8.671875 C-12.87984375 8.45015625 -13.4315625 8.2284375 -14 8 C-12.23569031 6.65804628 -10.4633209 5.32668332 -8.6875 4 C-7.70136719 3.2575 -6.71523437 2.515 -5.69921875 1.75 C-3 0 -3 0 0 0 Z " fill="#E28027" transform="translate(1531,799)"/>
<path d="M0 0 C0 0.99 0 1.98 0 3 C-3.40907134 6.20246095 -9.14129355 11 -14 11 C-12.64478423 6.93435268 -9.95964829 5.8649215 -6.4375 3.8125 C-5.82197266 3.44447266 -5.20644531 3.07644531 -4.57226562 2.69726562 C-3.05283891 1.790321 -1.52700967 0.89411832 0 0 Z " fill="#2A3659" transform="translate(1542,839)"/>
<path d="M0 0 C2.04159095 -0.0272616 4.08328963 -0.04651345 6.125 -0.0625 C7.26195312 -0.07410156 8.39890625 -0.08570313 9.5703125 -0.09765625 C12.8129156 -0.005327 15.81932612 0.38610094 19 1 C18.67 1.66 18.34 2.32 18 3 C12.06 2.67 6.12 2.34 0 2 C0 1.34 0 0.68 0 0 Z " fill="#2B3858" transform="translate(838,843)"/>
<path d="M0 0 C-2.5722113 3.00091319 -5.35030652 4.52608532 -9 6 C-12.875 6.1875 -12.875 6.1875 -16 6 C-11.34887439 2.09305449 -6.17401031 -0.56127366 0 0 Z " fill="#2B385A" transform="translate(982,987)"/>
<path d="M0 0 C2.475 0.99 2.475 0.99 5 2 C5 2.66 5 3.32 5 4 C5.9075 4.226875 6.815 4.45375 7.75 4.6875 C11.44888324 6.18127977 12.77905658 7.75400577 15 11 C10.97454466 10.71915428 9.25517374 10.21634296 6.125 7.5625 C4 5 4 5 4 3 C2.68 2.34 1.36 1.68 0 1 C0 0.67 0 0.34 0 0 Z " fill="#E5852E" transform="translate(1326,787)"/>
<path d="M0 0 C0.66 0.33 1.32 0.66 2 1 C0.7260411 3.03833424 -0.61061923 5.03852126 -2 7 C-2.66 7 -3.32 7 -4 7 C-4 7.66 -4 8.32 -4 9 C-4.928125 9.12375 -4.928125 9.12375 -5.875 9.25 C-8.1765144 9.79994195 -8.1765144 9.79994195 -9.125 12 C-9.41375 12.66 -9.7025 13.32 -10 14 C-10.99 14.495 -10.99 14.495 -12 15 C-10.58397787 11.85093585 -8.86264918 9.50476328 -6.5625 6.9375 C-5.96566406 6.26589844 -5.36882812 5.59429688 -4.75390625 4.90234375 C-3.20703058 3.2245521 -1.62828434 1.59840757 0 0 Z " fill="#FCDCAE" transform="translate(1483,833)"/>
<path d="M0 0 C5.94 0 11.88 0 18 0 C18 0.33 18 0.66 18 1 C11.25846717 2.25841946 4.86515862 3.26404456 -2 3 C-1.34 2.67 -0.68 2.34 0 2 C0 1.34 0 0.68 0 0 Z " fill="#FEEAC7" transform="translate(1438,432)"/>
<path d="M0 0 C0.33 0.99 0.66 1.98 1 3 C-0.45217676 4.50596108 -1.91192861 6.00462104 -3.375 7.5 C-4.18710938 8.3353125 -4.99921875 9.170625 -5.8359375 10.03125 C-8 12 -8 12 -10 12 C-10 11.01 -10 10.02 -10 9 C-9.01 8.34 -8.02 7.68 -7 7 C-6.67 6.01 -6.34 5.02 -6 4 C-3.5 2.375 -3.5 2.375 -1 1 C-0.67 0.67 -0.34 0.34 0 0 Z " fill="#E07823" transform="translate(1483,830)"/>
<path d="M0 0 C-0.66 1.32 -1.32 2.64 -2 4 C-7 4 -12 4 -17 4 C-14.0112778 2.34961512 -11.28632562 1.5114284 -7.9375 0.875 C-6.65166016 0.62363281 -6.65166016 0.62363281 -5.33984375 0.3671875 C-3 0 -3 0 0 0 Z " fill="#3A4567" transform="translate(925,722)"/>
<path d="M0 0 C-0.66 0 -1.32 0 -2 0 C-2 0.66 -2 1.32 -2 2 C-8.93 5.465 -8.93 5.465 -16 9 C-16.33 8.34 -16.66 7.68 -17 7 C-15.5459375 6.5978125 -15.5459375 6.5978125 -14.0625 6.1875 C-12.5465625 5.5996875 -12.5465625 5.5996875 -11 5 C-10.67 4.01 -10.34 3.02 -10 2 C-3.73913043 -1.24637681 -3.73913043 -1.24637681 0 0 Z " fill="#F08023" transform="translate(1548,790)"/>
<path d="M0 0 C0.99 0 1.98 0 3 0 C3.33 1.32 3.66 2.64 4 4 C4.66 4 5.32 4 6 4 C6 4.66 6 5.32 6 6 C6.66 6 7.32 6 8 6 C8.66 8.64 9.32 11.28 10 14 C7.53713232 11.64322508 5.41796384 9.11677998 3.3125 6.4375 C2.68988281 5.65246094 2.06726562 4.86742187 1.42578125 4.05859375 C0 2 0 2 0 0 Z " fill="#FDE9CB" transform="translate(1735,545)"/>
<path d="M0 0 C5.98511371 0.34302035 10.75117306 0.82307843 16 4 C12.23331402 5.3805087 9.55210827 4.59568159 5.75 3.5625 C4.13351562 3.13130859 4.13351562 3.13130859 2.484375 2.69140625 C1.25460937 2.34916016 1.25460937 2.34916016 0 2 C0 1.34 0 0.68 0 0 Z " fill="#374464" transform="translate(1288,1059)"/>
<path d="M0 0 C0.99 0.33 1.98 0.66 3 1 C-1.30972626 5.09949571 -3.85310727 6.63118644 -10 7 C-6.81516089 4.36113331 -3.7101179 1.85505895 0 0 Z " fill="#212D50" transform="translate(1553,832)"/>
<path d="M0 0 C0 0.66 0 1.32 0 2 C-4.94816714 4.80396138 -9.61682285 3.77350507 -15 3 C-15 2.67 -15 2.34 -15 2 C-13.2508503 1.66223316 -11.50063855 1.32996329 -9.75 1 C-8.77546875 0.814375 -7.8009375 0.62875 -6.796875 0.4375 C-4 0 -4 0 0 0 Z " fill="#343F63" transform="translate(1750,754)"/>
<path d="M0 0 C-0.33 0.99 -0.66 1.98 -1 3 C-7.41688675 3.10349817 -13.62694402 2.74507544 -20 2 C-20 1.67 -20 1.34 -20 1 C-13.30386804 0.202163 -6.74233419 -0.12910853 0 0 Z " fill="#2C3756" transform="translate(982,714)"/>
<path d="M0 0 C0.66 0.33 1.32 0.66 2 1 C-0.97 5.29 -3.94 9.58 -7 14 C-8.16180951 10.51457146 -7.8772131 10.02769331 -6.3125 6.875 C-5.97863281 6.17117188 -5.64476562 5.46734375 -5.30078125 4.7421875 C-4 3 -4 3 -1.85546875 2.2578125 C-0.93701172 2.13019531 -0.93701172 2.13019531 0 2 C0 1.34 0 0.68 0 0 Z " fill="#FEECD0" transform="translate(1251,554)"/>
<path d="M0 0 C6.5705166 -0.24794402 12.56971459 0.67611771 19 2 C19.33 2.99 19.66 3.98 20 5 C18.58249437 4.88490339 17.16598831 4.75746342 15.75 4.625 C14.96109375 4.55539062 14.1721875 4.48578125 13.359375 4.4140625 C10.89572304 3.98169974 9.20811108 3.13967023 7 2 C4.67504723 1.61250787 2.34148732 1.27017161 0 1 C0 0.67 0 0.34 0 0 Z " fill="#FCE5C1" transform="translate(1538,431)"/>
<path d="M0 0 C0.33 0.99 0.66 1.98 1 3 C-0.2065625 4.0828125 -0.2065625 4.0828125 -1.4375 5.1875 C-4.02292072 8.02515689 -4.68042813 9.27166147 -5 13 C-6.125 11.3125 -6.125 11.3125 -7 9 C-5.99071489 4.51428842 -3.6657172 2.60458854 0 0 Z " fill="#283457" transform="translate(919,1016)"/>
<path d="M0 0 C0.33 0.99 0.66 1.98 1 3 C-0.57533086 3.86883706 -2.16064509 4.71959068 -3.75 5.5625 C-4.63171875 6.03816406 -5.5134375 6.51382813 -6.421875 7.00390625 C-9 8 -9 8 -13 7 C-8.71 4.69 -4.42 2.38 0 0 Z " fill="#2A3858" transform="translate(797,769)"/>
<path d="M0 0 C0 0.99 0 1.98 0 3 C-9.05607477 5.6635514 -9.05607477 5.6635514 -12 6 C-12.66 5.34 -13.32 4.68 -14 4 C-9.38 2.68 -4.76 1.36 0 0 Z " fill="#232F51" transform="translate(1690,768)"/>
<path d="M0 0 C-4.2281408 2.88751079 -8.45221041 5.63864771 -13 8 C-13.66 7.67 -14.32 7.34 -15 7 C-14.67 6.34 -14.34 5.68 -14 5 C-13.01 5 -12.02 5 -11 5 C-11 4.34 -11 3.68 -11 3 C-10.360625 2.87625 -9.72125 2.7525 -9.0625 2.625 C-8.0415625 2.315625 -8.0415625 2.315625 -7 2 C-6.67 1.34 -6.34 0.68 -6 0 C-3 -1 -3 -1 0 0 Z " fill="#FEF9E4" transform="translate(1531,806)"/>
<path d="M0 0 C4.23322844 0.62045463 7.52290295 2.10523559 11.3125 4.0625 C12.38113281 4.61035156 13.44976563 5.15820312 14.55078125 5.72265625 C15.35902344 6.14417969 16.16726563 6.56570313 17 7 C17 7.33 17 7.66 17 8 C10.27137118 7.70745092 5.44708838 4.85789761 0 1 C0 0.67 0 0.34 0 0 Z " fill="#FEF1D7" transform="translate(1314,786)"/>
<path d="M0 0 C0.99 0 1.98 0 3 0 C0.10933941 9.59453303 0.10933941 9.59453303 -3 13 C-3.38281159 7.76824163 -2.21854707 4.62197306 0 0 Z " fill="#FEEED3" transform="translate(1220,604)"/>
<path d="M0 0 C1 2 1 2 0.0625 5.125 C-0.288125 6.07375 -0.63875 7.0225 -1 8 C-1.99 8 -2.98 8 -4 8 C-4.33 8.99 -4.66 9.98 -5 11 C-5.66 11 -6.32 11 -7 11 C-5.5140084 6.40693504 -3.14985318 3.56430755 0 0 Z " fill="#E38D47" transform="translate(1251,557)"/>
<path d="M0 0 C-0.66 0.66 -1.32 1.32 -2 2 C-2.99 2 -3.98 2 -5 2 C-5 2.66 -5 3.32 -5 4 C-8.63 4.33 -12.26 4.66 -16 5 C-13.13879225 3.09252817 -10.64745007 1.99646294 -7.4375 0.8125 C-6.46683594 0.44769531 -5.49617188 0.08289063 -4.49609375 -0.29296875 C-2 -1 -2 -1 0 0 Z " fill="#FCDDB0" transform="translate(1656,741)"/>
<path d="M0 0 C0.66 0 1.32 0 2 0 C1.71812064 1.79323253 1.4241719 3.58457126 1.125 5.375 C0.96257812 6.37273438 0.80015625 7.37046875 0.6328125 8.3984375 C0 11 0 11 -2 13 C-2.05416188 11.39620659 -2.09286638 9.79188594 -2.125 8.1875 C-2.14820313 7.29417969 -2.17140625 6.40085937 -2.1953125 5.48046875 C-2 3 -2 3 0 0 Z " fill="#FEECCA" transform="translate(1205,647)"/>
<path d="M0 0 C0 0.66 0 1.32 0 2 C-3.14147194 4.15415219 -6.35610927 5.87880285 -10 7 C-12.15234375 6.546875 -12.15234375 6.546875 -14 6 C-12.04414675 4.99515796 -10.08523763 3.99626195 -8.125 3 C-6.48917969 2.1646875 -6.48917969 2.1646875 -4.8203125 1.3125 C-2 0 -2 0 0 0 Z " fill="#2C3957" transform="translate(955,998)"/>
<path d="M0 0 C0 0.66 0 1.32 0 2 C-0.66 2 -1.32 2 -2 2 C-2.33 2.99 -2.66 3.98 -3 5 C-5.70879335 6.35439668 -8.00933268 6.06501451 -11 6 C-8.24029211 2.78034079 -4.3526723 0 0 0 Z " fill="#FDE8C4" transform="translate(1587,771)"/>
<path d="M0 0 C3.28465896 2.79196011 5.01321958 6.23196817 7 10 C7 10.66 7 11.32 7 12 C3.86501824 10.91897181 3.0131441 10.02159388 1.25 7.125 C0 4 0 4 0 0 Z " fill="#DE873B" transform="translate(1757,580)"/>
<path d="M0 0 C0.66 0.33 1.32 0.66 2 1 C0.88096454 2.81618856 -0.24541284 4.62785526 -1.375 6.4375 C-2.00148438 7.44683594 -2.62796875 8.45617187 -3.2734375 9.49609375 C-5 12 -5 12 -7 13 C-4.02906977 3.6627907 -4.02906977 3.6627907 0 0 Z " fill="#F07D21" transform="translate(1247,565)"/>
<path d="M0 0 C3.63 1.98 7.26 3.96 11 6 C11 6.33 11 6.66 11 7 C3.11735941 6.24205379 3.11735941 6.24205379 0 3 C0 2.01 0 1.02 0 0 Z " fill="#FDEED1" transform="translate(1412,845)"/>
<path d="M0 0 C4.77609498 1.64178265 8.79382904 4.26546702 13 7 C9.37673261 8.2077558 8.35853631 7.54311128 5 6 C5 5.34 5 4.68 5 4 C4.01 4 3.02 4 2 4 C2 3.34 2 2.68 2 2 C1.34 2 0.68 2 0 2 C0 1.34 0 0.68 0 0 Z " fill="#FDE8C5" transform="translate(1399,837)"/>
<path d="M0 0 C2.9719385 1.12451727 5.33440687 2.22293791 8 4 C8 4.66 8 5.32 8 6 C8.804375 6.28875 9.60875 6.5775 10.4375 6.875 C13 8 13 8 14 10 C9.33539866 8.39654329 4.88058403 6.05550658 1 3 C0.67 2.01 0.34 1.02 0 0 Z " fill="#DB8031" transform="translate(1381,823)"/>
<path d="M0 0 C-3.06975587 2.04650391 -5.69084152 2.99704565 -9.1875 4.125 C-10.27417969 4.47820313 -11.36085938 4.83140625 -12.48046875 5.1953125 C-13.31191406 5.46085938 -14.14335938 5.72640625 -15 6 C-15 5.34 -15 4.68 -15 4 C-9.77228537 0.95842058 -6.07328688 -0.50610724 0 0 Z " fill="#DF8737" transform="translate(1662,737)"/>
<path d="M0 0 C0.33 0.66 0.66 1.32 1 2 C-1.10515339 5.72450216 -2.24267224 7.6795921 -6.25 9.375 C-7.61125 9.684375 -7.61125 9.684375 -9 10 C-8.06409496 8.8944811 -7.12620142 7.79064547 -6.1875 6.6875 C-5.66542969 6.07261719 -5.14335938 5.45773437 -4.60546875 4.82421875 C-3.12827531 3.14575321 -1.59960869 1.56117966 0 0 Z " fill="#DF8E48" transform="translate(1287,515)"/>
<path d="M0 0 C0.66 0.33 1.32 0.66 2 1 C0.55373881 4.81287042 -1.30194812 6.32707177 -5 8 C-6.32 7.67 -7.64 7.34 -9 7 C-6.03 4.69 -3.06 2.38 0 0 Z " fill="#DF8A3F" transform="translate(1327,482)"/>
<path d="M0 0 C-2.63595772 2.63595772 -5.06187181 3.07702112 -8.625 4.125 C-9.81351563 4.47820313 -11.00203125 4.83140625 -12.2265625 5.1953125 C-13.14179687 5.46085938 -14.05703125 5.72640625 -15 6 C-15 5.34 -15 4.68 -15 4 C-13.44219668 3.32243118 -11.87849904 2.65840543 -10.3125 2 C-9.44238281 1.62875 -8.57226562 1.2575 -7.67578125 0.875 C-4.9427998 -0.01870488 -2.85299066 -0.16449676 0 0 Z " fill="#182449" transform="translate(1674,1006)"/>
<path d="M0 0 C2.08304538 -0.05418326 4.16649768 -0.09287551 6.25 -0.125 C7.99023438 -0.15980469 7.99023438 -0.15980469 9.765625 -0.1953125 C12.82786046 -0.0103949 14.44202751 0.39176977 17 2 C10.73960391 2.93213141 5.97802937 3.20927172 0 1 C0 0.67 0 0.34 0 0 Z " fill="#182446" transform="translate(1616,913)"/>
<path d="M0 0 C2.475 0.495 2.475 0.495 5 1 C5 1.66 5 2.32 5 3 C6.65 3 8.3 3 10 3 C10.33 4.32 10.66 5.64 11 7 C7.2089881 5.55049545 3.6125362 3.84827434 0 2 C0 1.34 0 0.68 0 0 Z " fill="#293557" transform="translate(1013,900)"/>
<path d="M0 0 C1.38830167 2.77660334 0.89196269 4.04966186 0 7 C-2.0625 9.8125 -2.0625 9.8125 -4 12 C-4.8125 9.9375 -4.8125 9.9375 -5 7 C-3.58973707 4.45310725 -1.86023965 2.23357494 0 0 Z " fill="#2A375A" transform="translate(1506,864)"/>
<path d="M0 0 C4.10958767 1.45044271 7.43258745 3.51110752 11 6 C10.01 6.495 10.01 6.495 9 7 C5.92379901 5.79149247 2.9555643 4.47778215 0 3 C0 2.01 0 1.02 0 0 Z " fill="#FDE3BD" transform="translate(1377,823)"/>
<path d="M0 0 C0 0.66 0 1.32 0 2 C-6.625 5 -6.625 5 -10 5 C-10 5.66 -10 6.32 -10 7 C-11.65 7.33 -13.3 7.66 -15 8 C-14.67 7.34 -14.34 6.68 -14 6 C-13.01 6 -12.02 6 -11 6 C-11 5.34 -11 4.68 -11 4 C-4.5 0 -4.5 0 0 0 Z " fill="#F17F1C" transform="translate(1592,765)"/>
<path d="M0 0 C2.0625 0.4375 2.0625 0.4375 4 1 C-1.14285714 5.42857143 -1.14285714 5.42857143 -5 6 C-5.33 5.01 -5.66 4.02 -6 3 C-5.195625 2.690625 -4.39125 2.38125 -3.5625 2.0625 C-1.10919595 1.23664655 -1.10919595 1.23664655 0 0 Z " fill="#293656" transform="translate(1791,1015)"/>
<path d="M0 0 C-2.88628401 1.57554035 -5.53342384 2.46276373 -8.75 3.125 C-9.54921875 3.29257812 -10.3484375 3.46015625 -11.171875 3.6328125 C-11.77515625 3.75398437 -12.3784375 3.87515625 -13 4 C-13 3.34 -13 2.68 -13 2 C-11.5882217 1.46605821 -10.17029756 0.94834896 -8.75 0.4375 C-7.96109375 0.14746094 -7.1721875 -0.14257812 -6.359375 -0.44140625 C-3.80896548 -1.04522837 -2.44677771 -0.8473932 0 0 Z " fill="#3B4665" transform="translate(1873,905)"/>
<path d="M0 0 C0.64066406 0.13277344 1.28132813 0.26554688 1.94140625 0.40234375 C6.94983993 1.42493006 11.93111794 2.33884147 17 3 C17 3.33 17 3.66 17 4 C14.91781638 4.10832169 12.83400871 4.18573541 10.75 4.25 C9.00976562 4.31960938 9.00976562 4.31960938 7.234375 4.390625 C3.42333987 3.93035506 2.34488245 2.94851556 0 0 Z " fill="#FADBB0" transform="translate(1445,865)"/>
<path d="M0 0 C3.79303725 1.00193437 6.71536341 1.81024227 10 4 C10 4.66 10 5.32 10 6 C11.32 6.66 12.64 7.32 14 8 C10.13375035 8 8.53339391 6.65502846 5.3125 4.5625 C4.31863281 3.92441406 3.32476563 3.28632812 2.30078125 2.62890625 C1.54152344 2.09136719 0.78226563 1.55382812 0 1 C0 0.67 0 0.34 0 0 Z " fill="#D9904E" transform="translate(1412,844)"/>
<path d="M0 0 C0.66 0 1.32 0 2 0 C0.54331217 2.96783129 -1.01232086 5.86415313 -2.625 8.75 C-3.29402344 9.94882812 -3.29402344 9.94882812 -3.9765625 11.171875 C-4.48316406 12.07679688 -4.48316406 12.07679688 -5 13 C-6.04449911 9.86650268 -5.93423645 9.01031744 -5 6 C-4.34 6 -3.68 6 -3 6 C-2.690625 5.195625 -2.38125 4.39125 -2.0625 3.5625 C-1 1 -1 1 0 0 Z " fill="#DB8134" transform="translate(1472,842)"/>
<path d="M0 0 C1.43861294 0.08746284 2.87597508 0.19565348 4.3125 0.3125 C5.11300781 0.37050781 5.91351562 0.42851563 6.73828125 0.48828125 C9.39066259 1.08838825 10.36503879 1.85708967 12 4 C12 4.66 12 5.32 12 6 C7.76570244 4.68938409 3.92592596 3.05643741 0 1 C0 0.67 0 0.34 0 0 Z " fill="#DF8A3E" transform="translate(1205,722)"/>
<path d="M0 0 C0.66 0 1.32 0 2 0 C1.39254603 4.85963179 -0.72758967 8.7405518 -3 13 C-4.22419163 9.06204091 -3.48320272 6.83887763 -2 3 C-1.34 3 -0.68 3 0 3 C0 2.01 0 1.02 0 0 Z " fill="#FDE2BE" transform="translate(1227,591)"/>
<path d="M0 0 C2.475 0.495 2.475 0.495 5 1 C5 1.66 5 2.32 5 3 C5.78375 3.0825 6.5675 3.165 7.375 3.25 C10 4 10 4 11.3125 6.0625 C11.6528125 7.0215625 11.6528125 7.0215625 12 8 C7.44328408 6.48109469 3.68276708 4.04597738 0 1 C0 0.67 0 0.34 0 0 Z " fill="#FBE4C1" transform="translate(1658,476)"/>
<path d="M0 0 C7.38461538 0.36923077 7.38461538 0.36923077 10.5 3.5625 C10.995 4.366875 11.49 5.17125 12 6 C8.55639368 6 7.25204608 5.20408468 4.3125 3.5 C3.50425781 3.0359375 2.69601562 2.571875 1.86328125 2.09375 C1.24839844 1.7328125 0.63351562 1.371875 0 1 C0 0.67 0 0.34 0 0 Z " fill="#FCE2BD" transform="translate(1644,468)"/>
<path d="M0 0 C5.45486849 -0.19139889 9.78555016 0.12279806 15 2 C15.66 2.66 16.32 3.32 17 4 C11.2190275 3.36934845 5.6556294 2.34844868 0 1 C0 0.67 0 0.34 0 0 Z " fill="#FCDDB3" transform="translate(1559,436)"/>
<path d="M0 0 C1.258125 0.12375 2.51625 0.2475 3.8125 0.375 C4.87404297 0.47941406 4.87404297 0.47941406 5.95703125 0.5859375 C8 1 8 1 11 3 C11 3.66 11 4.32 11 5 C7.0507432 4.44894091 3.65079826 3.61064629 0 2 C0 1.34 0 0.68 0 0 Z " fill="#2C3A5A" transform="translate(935,864)"/>
<path d="M0 0 C-0.33 0.99 -0.66 1.98 -1 3 C-7.4 4.23076923 -7.4 4.23076923 -10.4375 3.0625 C-10.953125 2.711875 -11.46875 2.36125 -12 2 C-10.7625 1.67 -9.525 1.34 -8.25 1 C-7.55390625 0.814375 -6.8578125 0.62875 -6.140625 0.4375 C-4 0 -4 0 0 0 Z " fill="#3E4A6A" transform="translate(1721,760)"/>
<path d="M0 0 C0.66 0 1.32 0 2 0 C1.88557539 1.60495567 1.75805306 3.20898119 1.625 4.8125 C1.55539062 5.70582031 1.48578125 6.59914063 1.4140625 7.51953125 C1 10 1 10 -1 13 C-1.02708567 11.39592672 -1.04643483 9.7917215 -1.0625 8.1875 C-1.07410156 7.29417969 -1.08570313 6.40085937 -1.09765625 5.48046875 C-1 3 -1 3 0 0 Z " fill="#E7822C" transform="translate(1208,644)"/>
<path d="M0 0 C4.16138263 -0.08159574 7.9472484 0.01751476 12 1 C11.67 1.66 11.34 2.32 11 3 C7.37 2.67 3.74 2.34 0 2 C0 1.34 0 0.68 0 0 Z " fill="#334062" transform="translate(1195,1039)"/>
<path d="M0 0 C0 0.99 0 1.98 0 3 C-1.98 3.33 -3.96 3.66 -6 4 C-6.33 4.99 -6.66 5.98 -7 7 C-8.32 6.67 -9.64 6.34 -11 6 C-9.54550599 4.9944239 -8.08627557 3.99569565 -6.625 3 C-5.40683594 2.1646875 -5.40683594 2.1646875 -4.1640625 1.3125 C-2 0 -2 0 0 0 Z " fill="#FCE0B1" transform="translate(1531,802)"/>
<path d="M0 0 C3.52269485 -0.4025937 4.79940808 -0.13372795 7.8125 1.875 C8.534375 2.57625 9.25625 3.2775 10 4 C10 4.66 10 5.32 10 6 C5.56909529 4.79157144 3.01887244 3.48331435 0 0 Z " fill="#DC8C45" transform="translate(1277,760)"/>
<path d="M0 0 C0 0.66 0 1.32 0 2 C-3.3 2.66 -6.6 3.32 -10 4 C-10 3.01 -10 2.02 -10 1 C-6.59437148 0.22157062 -3.49234244 -0.09978121 0 0 Z " fill="#222F54" transform="translate(1684,1003)"/>
<path d="M0 0 C1.8871875 0.0309375 1.8871875 0.0309375 3.8125 0.0625 C1.25859064 2.16035412 -0.81669544 3.84502874 -4.1875 4.0625 C-5.9375 2.625 -5.9375 2.625 -7.1875 1.0625 C-4.43671116 0.14557039 -2.82801087 -0.04636083 0 0 Z " fill="#2F3E5F" transform="translate(1036.1875,966.9375)"/>
<path d="M0 0 C0.66 0.33 1.32 0.66 2 1 C-0.60300565 4.90450847 -2.8328898 5.8798913 -7 8 C-7.99 8 -8.98 8 -10 8 C-6.7 5.36 -3.4 2.72 0 0 Z " fill="#FCE4BD" transform="translate(1495,824)"/>
<path d="M0 0 C0.66 0.33 1.32 0.66 2 1 C0.02 3.31 -1.96 5.62 -4 8 C-4.99 7.34 -5.98 6.68 -7 6 C-4.69 4.02 -2.38 2.04 0 0 Z " fill="#263254" transform="translate(724,815)"/>
<path d="M0 0 C0 0.99 0 1.98 0 3 C-5.17578125 6.22265625 -5.17578125 6.22265625 -7 7 C-7.99 6.67 -8.98 6.34 -10 6 C-6.7 4.02 -3.4 2.04 0 0 Z " fill="#233051" transform="translate(767,786)"/>
<path d="M0 0 C1 3 1 3 -0.25 5.6875 C-0.8275 6.450625 -1.405 7.21375 -2 8 C-2.99 8 -3.98 8 -5 8 C-4.34 6.02 -3.68 4.04 -3 2 C-2.01 2 -1.02 2 0 2 C0 1.34 0 0.68 0 0 Z " fill="#E88636" transform="translate(1226,602)"/>
<path d="M0 0 C0.99 0.33 1.98 0.66 3 1 C0.36 3.64 -2.28 6.28 -5 9 C-5.33 8.01 -5.66 7.02 -6 6 C-4 4 -2 2 0 0 Z " fill="#1C284A" transform="translate(1802,1006)"/>
<path d="M0 0 C3.81684226 1.55500981 6.19195732 4.03595495 9 7 C8.67 7.66 8.34 8.32 8 9 C4.7 6.69 1.4 4.38 -2 2 C-1.34 1.34 -0.68 0.68 0 0 Z " fill="#273350" transform="translate(1770,1001)"/>
<path d="M0 0 C3.5625 0.125 3.5625 0.125 7 1 C7.66 1.99 8.32 2.98 9 4 C5.04 3.67 1.08 3.34 -3 3 C-2.01 2.01 -1.02 1.02 0 0 Z " fill="#293558" transform="translate(2038,898)"/>
<path d="M0 0 C2.64 0.33 5.28 0.66 8 1 C8 1.66 8 2.32 8 3 C5.36 3 2.72 3 0 3 C0 2.01 0 1.02 0 0 Z " fill="#263251" transform="translate(1995,894)"/>
<path d="M0 0 C1.53668865 0.22467831 3.07968054 0.40796805 4.625 0.5625 C5.44226562 0.64628906 6.25953125 0.73007812 7.1015625 0.81640625 C7.72804688 0.87699219 8.35453125 0.93757812 9 1 C9 1.33 9 1.66 9 2 C3.39 2 -2.22 2 -8 2 C-8 1.67 -8 1.34 -8 1 C-2.25 -1.125 -2.25 -1.125 0 0 Z " fill="#121D40" transform="translate(1532,874)"/>
<path d="M0 0 C0.33 0.99 0.66 1.98 1 3 C-4.17578125 6.22265625 -4.17578125 6.22265625 -6 7 C-6.99 6.67 -7.98 6.34 -9 6 C-6.03 4.02 -3.06 2.04 0 0 Z " fill="#293658" transform="translate(751,796)"/>
<path d="M0 0 C0.33 0 0.66 0 1 0 C1 2.64 1 5.28 1 8 C-0.98 8.99 -0.98 8.99 -3 10 C-2.05066101 6.64566891 -1.10251165 3.30753495 0 0 Z " fill="#E58D41" transform="translate(1220,610)"/>
<path d="M0 0 C-1.41519715 2.0343459 -2.54982123 2.90410393 -4.98046875 3.421875 C-6.98176954 3.66273952 -8.9909944 3.83532741 -11 4 C-3.77464789 -1.88732394 -3.77464789 -1.88732394 0 0 Z " fill="#DD883A" transform="translate(1378,456)"/>
<path d="M0 0 C1.98 0 3.96 0 6 0 C3.77174356 2.22825644 2.34238372 2.69239369 -0.625 3.625 C-1.44226562 3.88539063 -2.25953125 4.14578125 -3.1015625 4.4140625 C-3.72804688 4.60742188 -4.35453125 4.80078125 -5 5 C-4.67 4.01 -4.34 3.02 -4 2 C-2.68 2 -1.36 2 0 2 C0 1.34 0 0.68 0 0 Z " fill="#263355" transform="translate(1788,931)"/>
<path d="M0 0 C2.97 0.99 5.94 1.98 9 3 C9 3.66 9 4.32 9 5 C5.37 4.01 1.74 3.02 -2 2 C-1.34 1.34 -0.68 0.68 0 0 Z " fill="#313C5D" transform="translate(923,859)"/>
<path d="M0 0 C4.85077588 1.11940982 7.777893 2.1334716 11 6 C7.61121488 6 6.60242783 5.35638802 3.8125 3.5625 C2.73935547 2.88380859 2.73935547 2.88380859 1.64453125 2.19140625 C1.10183594 1.79824219 0.55914063 1.40507813 0 1 C0 0.67 0 0.34 0 0 Z " fill="#D98C46" transform="translate(1320,786)"/>
<path d="M0 0 C-3.67259383 2.44839588 -6.54648201 4 -11 4 C-11 3.34 -11 2.68 -11 2 C-7.17010894 0.19769832 -4.21878192 -0.19622241 0 0 Z " fill="#D1D6E5" transform="translate(1698,765)"/>
<path d="M0 0 C0.33 0 0.66 0 1 0 C1.53341184 1.57914015 2.05125763 3.16354387 2.5625 4.75 C2.85253906 5.63171875 3.14257812 6.5134375 3.44140625 7.421875 C4.01697435 10.07834316 3.89248371 11.47031106 3 14 C0.81005752 10.71508627 0.64722661 9.16904361 0.375 5.3125 C0.30023437 4.31863281 0.22546875 3.32476563 0.1484375 2.30078125 C0.09945313 1.54152344 0.05046875 0.78226563 0 0 Z " fill="#EC7B1F" transform="translate(1781,636)"/>
<path d="M0 0 C0.33 0 0.66 0 1 0 C0.50769231 6.4 0.50769231 6.4 -2.0625 9.4375 C-2.701875 9.953125 -3.34125 10.46875 -4 11 C-3.67 9.02 -3.34 7.04 -3 5 C-2.34 5 -1.68 5 -1 5 C-0.67 3.35 -0.34 1.7 0 0 Z " fill="#FEEECE" transform="translate(1257,543)"/>
<path d="M0 0 C-1.16290805 3.48872415 -2.13967609 4.09976864 -5.0625 6.1875 C-5.79597656 6.71730469 -6.52945312 7.24710937 -7.28515625 7.79296875 C-7.85105469 8.19128906 -8.41695312 8.58960938 -9 9 C-9.66 8.67 -10.32 8.34 -11 8 C-9.54712339 6.66072279 -8.08752741 5.32873153 -6.625 4 C-5.81289062 3.2575 -5.00078125 2.515 -4.1640625 1.75 C-2 0 -2 0 0 0 Z " fill="#DB8D47" transform="translate(1309,497)"/>
<path d="M0 0 C0.33 0.99 0.66 1.98 1 3 C1.66 3 2.32 3 3 3 C3 3.66 3 4.32 3 5 C3.66 5 4.32 5 5 5 C5 5.66 5 6.32 5 7 C2.0625 6.25 2.0625 6.25 -1 5 C-1.875 2.875 -1.875 2.875 -2 1 C-1.34 0.67 -0.68 0.34 0 0 Z " fill="#FEEACA" transform="translate(1626,454)"/>
<path d="M0 0 C0.94875 0.350625 1.8975 0.70125 2.875 1.0625 C2.875 1.7225 2.875 2.3825 2.875 3.0625 C0.235 2.7325 -2.405 2.4025 -5.125 2.0625 C-5.125 1.4025 -5.125 0.7425 -5.125 0.0625 C-3.125 -0.9375 -3.125 -0.9375 0 0 Z " fill="#2A3758" transform="translate(1222.125,1042.9375)"/>
<path d="M0 0 C-2.85306797 2.32472205 -5.54074837 3.7508258 -9 5 C-8.6875 3.0625 -8.6875 3.0625 -8 1 C-5.07175348 0.02391783 -3.04386724 -0.08226668 0 0 Z " fill="#263455" transform="translate(1768,943)"/>
<path d="M0 0 C1.48280196 0.78483659 2.9611498 1.57809334 4.4375 2.375 C5.67306641 3.03628906 5.67306641 3.03628906 6.93359375 3.7109375 C9 5 9 5 10 7 C6.51329166 5.8905928 3.22515763 4.73662334 0 3 C0 2.01 0 1.02 0 0 Z " fill="#FDDDB0" transform="translate(1389,830)"/>
<path d="M0 0 C-2.64 1.98 -5.28 3.96 -8 6 C-8 4.68 -8 3.36 -8 2 C-3.82258065 -1.27419355 -3.82258065 -1.27419355 0 0 Z " fill="#DC8A42" transform="translate(1492,827)"/>
<path d="M0 0 C0 0.99 0 1.98 0 3 C-2.97 3.66 -5.94 4.32 -9 5 C-4 0 -4 0 0 0 Z " fill="#FDE8C7" transform="translate(1558,787)"/>
<path d="M0 0 C3.91211733 1.15585285 6.8745041 2.35534962 10 5 C3.375 4.25 3.375 4.25 0 2 C0 1.34 0 0.68 0 0 Z " fill="#FBE3BC" transform="translate(1225,733)"/>
<path d="M0 0 C0 3 0 3 -1.53125 4.60546875 C-2.1809375 5.12753906 -2.830625 5.64960938 -3.5 6.1875 C-4.1496875 6.71730469 -4.799375 7.24710938 -5.46875 7.79296875 C-5.9740625 8.19128906 -6.479375 8.58960938 -7 9 C-7.66 8.67 -8.32 8.34 -9 8 C-6.03 5.36 -3.06 2.72 0 0 Z " fill="#DB8C49" transform="translate(1297,506)"/>
<path d="M0 0 C0.66 0.33 1.32 0.66 2 1 C-1.32307692 5.8 -1.32307692 5.8 -4.75 6.8125 C-5.4925 6.874375 -6.235 6.93625 -7 7 C-4.66666667 4.66666667 -2.33333333 2.33333333 0 0 Z " fill="#DC883D" transform="translate(1316,490)"/>
<path d="M0 0 C1.98 0 3.96 0 6 0 C5.67 0.66 5.34 1.32 5 2 C2.93359375 2.6328125 2.93359375 2.6328125 0.4375 3.125 C-0.80193359 3.37636719 -0.80193359 3.37636719 -2.06640625 3.6328125 C-2.70449219 3.75398437 -3.34257813 3.87515625 -4 4 C-3.67 3.34 -3.34 2.68 -3 2 C-2.01 2 -1.02 2 0 2 C0 1.34 0 0.68 0 0 Z " fill="#192449" transform="translate(1823,917)"/>
<path d="M0 0 C2.9375 1.3125 2.9375 1.3125 6 3 C6.33 3.99 6.66 4.98 7 6 C4 6 4 6 1.3125 3.5 C0.549375 2.675 -0.21375 1.85 -1 1 C-0.67 0.67 -0.34 0.34 0 0 Z " fill="#293558" transform="translate(1705,911)"/>
<path d="M0 0 C3.48670834 1.1094072 6.77484237 2.26337666 10 4 C9.67 4.66 9.34 5.32 9 6 C4.545 4.02 4.545 4.02 0 2 C0 1.34 0 0.68 0 0 Z " fill="#FEF7E4" transform="translate(1389,833)"/>
<path d="M0 0 C0.99 0.33 1.98 0.66 3 1 C0.16569547 4.2542015 -1.68607774 5.5206753 -6 6 C-4 4 -2 2 0 0 Z " fill="#202D4D" transform="translate(714,823)"/>
<path d="M0 0 C-0.99 0.33 -1.98 0.66 -3 1 C-3.309375 1.639375 -3.61875 2.27875 -3.9375 2.9375 C-5.2342338 5.45468915 -6.4221737 5.96886948 -9 7 C-6.56143667 1.39130435 -6.56143667 1.39130435 -3.9375 -0.4375 C-2 -1 -2 -1 0 0 Z " fill="#F17D1F" transform="translate(1284,524)"/>
<path d="M0 0 C-0.33 0.99 -0.66 1.98 -1 3 C-2.8125 3.875 -2.8125 3.875 -5 4 C-7.25 2.5625 -7.25 2.5625 -9 1 C-5.94152152 0.45627049 -3.11227195 0 0 0 Z " fill="#313F62" transform="translate(1735,757)"/>
<path d="M0 0 C3.59391114 1.33488128 6.75490696 2.96022723 10 5 C9.01 5.495 9.01 5.495 8 6 C6.0546875 5.22265625 6.0546875 5.22265625 3.875 4.0625 C3.15054687 3.68222656 2.42609375 3.30195312 1.6796875 2.91015625 C1.12539062 2.60980469 0.57109375 2.30945313 0 2 C0 1.34 0 0.68 0 0 Z " fill="#FDE0B3" transform="translate(1257,750)"/>
<path d="M0 0 C5.75 1.75 5.75 1.75 8 4 C2.25 4.125 2.25 4.125 0 3 C0 2.01 0 1.02 0 0 Z " fill="#FEEAC9" transform="translate(1205,723)"/>
<path d="M0 0 C3 2 3 2 3.6875 5.125 C3.8421875 6.548125 3.8421875 6.548125 4 8 C3.01 7.67 2.02 7.34 1 7 C0.67 4.69 0.34 2.38 0 0 Z " fill="#FDE5C1" transform="translate(1785,642)"/>
<path d="M0 0 C0.33 0 0.66 0 1 0 C0.67 2.97 0.34 5.94 0 9 C-0.99 9.33 -1.98 9.66 -3 10 C-2.01 6.7 -1.02 3.4 0 0 Z " fill="#DD8A44" transform="translate(1216,620)"/>
<path d="M0 0 C3.08089673 2.77280706 4.68775452 5.06326356 6 9 C3.5625 7.875 3.5625 7.875 1 6 C0.1875 2.8125 0.1875 2.8125 0 0 Z " fill="#DD873A" transform="translate(1746,562)"/>
<path d="M0 0 C-2.97 2.475 -2.97 2.475 -6 5 C-6.33 3.68 -6.66 2.36 -7 1 C-3.375 -1.125 -3.375 -1.125 0 0 Z " fill="#FCE6C5" transform="translate(1296,508)"/>
<path d="M0 0 C3 0 3 0 4.38671875 1.3125 C5.59114583 2.875 6.79557292 4.4375 8 6 C7.67 6.66 7.34 7.32 7 8 C5.83035398 6.8572081 4.66435444 5.71068285 3.5 4.5625 C2.8503125 3.92441406 2.200625 3.28632813 1.53125 2.62890625 C0 1 0 1 0 0 Z " fill="#FEF8E9" transform="translate(1699,505)"/>
<path d="M0 0 C5.75 -0.125 5.75 -0.125 8 1 C8 1.99 8 2.98 8 4 C2.25 2.25 2.25 2.25 0 0 Z " fill="#FEE3BD" transform="translate(1631,461)"/>
<path d="M0 0 C2.97 0.495 2.97 0.495 6 1 C5.67 1.99 5.34 2.98 5 4 C3.02 3.34 1.04 2.68 -1 2 C-0.67 1.34 -0.34 0.68 0 0 Z " fill="#213051" transform="translate(964,875)"/>
<path d="M0 0 C2.97 0.495 2.97 0.495 6 1 C6 2.65 6 4.3 6 6 C3.97945196 4.35830472 1.97956942 2.69088222 0 1 C0 0.67 0 0.34 0 0 Z " fill="#FCDFBA" transform="translate(1708,516)"/>
</svg>
